<svg width="1286" height="282" viewBox="0 0 1286 282" fill="none" xmlns="http://www.w3.org/2000/svg">
<g opacity="0.1">
<mask id="path-1-outside-1_151_145672" maskUnits="userSpaceOnUse" x="-0.658203" y="-0.323242" width="1287" height="546" fill="black">
<rect fill="white" x="-0.658203" y="-0.323242" width="1287" height="546"/>
<path d="M0.999884 539.677V5.85324H106.551V219.686L156.294 5.85324H263.665L203.913 250.32L276.101 539.677H165.393L107.158 281.258V539.677H0.999884ZM289.75 539.677V5.85324H392.875V539.677H289.75ZM435.338 539.677V5.85324H599.125C626.423 5.85324 647.048 12.1216 661 24.6584C674.952 36.9929 684.254 54.3827 688.904 76.8275C693.757 99.0702 696.184 125.256 696.184 155.384C696.184 184.502 692.443 207.756 684.961 225.146C677.682 242.535 663.831 254.566 643.408 261.239C660.191 264.677 671.919 273.068 678.592 286.414C685.467 299.557 688.904 316.644 688.904 337.673V539.677H583.656V330.697C583.656 315.127 580.421 305.522 573.95 301.883C567.682 298.041 557.47 296.12 543.316 296.12V539.677H435.338ZM543.923 203.611H569.704C584.465 203.611 591.845 187.535 591.845 155.384C591.845 134.557 590.228 120.908 586.993 114.438C583.757 107.967 577.691 104.732 568.794 104.732H543.923V203.611ZM858.757 544.53C816.092 544.53 783.436 531.69 760.788 506.009C738.344 480.127 727.121 442.82 727.121 394.089V140.522C727.121 94.8238 738.242 60.1455 760.485 36.4874C782.93 12.8293 815.687 1.0003 858.757 1.0003C901.827 1.0003 934.483 12.8293 956.726 36.4874C979.171 60.1455 990.393 94.8238 990.393 140.522V394.089C990.393 442.82 979.07 480.127 956.423 506.009C933.978 531.69 901.423 544.53 858.757 544.53ZM859.667 446.258C875.844 446.258 883.932 430.587 883.932 399.245V138.703C883.932 112.416 876.046 99.2724 860.274 99.2724C842.48 99.2724 833.583 112.719 833.583 139.612V399.851C833.583 416.432 835.605 428.362 839.649 435.642C843.693 442.719 850.366 446.258 859.667 446.258ZM1160.25 544.53C1111.51 544.53 1076.33 532.397 1054.69 508.133C1033.26 483.868 1022.54 445.247 1022.54 392.269V340.1H1128.1V406.827C1128.1 419.162 1129.92 428.868 1133.55 435.945C1137.4 442.82 1143.97 446.258 1153.27 446.258C1162.98 446.258 1169.65 443.427 1173.29 437.765C1177.13 432.103 1179.05 422.802 1179.05 409.861C1179.05 393.482 1177.43 379.833 1174.2 368.914C1170.96 357.793 1165.3 347.278 1157.21 337.37C1149.33 327.259 1138.31 315.532 1124.15 302.186L1076.23 256.69C1040.44 222.921 1022.54 184.3 1022.54 140.826C1022.54 95.3293 1033.06 60.651 1054.09 36.7907C1075.32 12.9304 1105.95 1.0003 1145.99 1.0003C1194.92 1.0003 1229.6 14.0426 1250.03 40.1271C1270.65 66.2117 1280.96 105.844 1280.96 159.024H1172.38V122.324C1172.38 115.044 1170.26 109.383 1166.01 105.339C1161.96 101.294 1156.4 99.2724 1149.33 99.2724C1140.83 99.2724 1134.57 101.699 1130.52 106.552C1126.68 111.203 1124.76 117.269 1124.76 124.75C1124.76 132.232 1126.78 140.32 1130.83 149.015C1134.87 157.71 1142.86 167.719 1154.79 179.043L1216.36 238.188C1228.69 249.916 1240.02 262.351 1250.33 275.495C1260.64 288.436 1268.93 303.601 1275.2 320.991C1281.47 338.179 1284.6 359.208 1284.6 384.079C1284.6 434.226 1275.3 473.555 1256.7 502.066C1238.3 530.375 1206.15 544.53 1160.25 544.53Z"/>
</mask>
<path d="M0.999884 539.677V5.85324H106.551V219.686L156.294 5.85324H263.665L203.913 250.32L276.101 539.677H165.393L107.158 281.258V539.677H0.999884ZM289.75 539.677V5.85324H392.875V539.677H289.75ZM435.338 539.677V5.85324H599.125C626.423 5.85324 647.048 12.1216 661 24.6584C674.952 36.9929 684.254 54.3827 688.904 76.8275C693.757 99.0702 696.184 125.256 696.184 155.384C696.184 184.502 692.443 207.756 684.961 225.146C677.682 242.535 663.831 254.566 643.408 261.239C660.191 264.677 671.919 273.068 678.592 286.414C685.467 299.557 688.904 316.644 688.904 337.673V539.677H583.656V330.697C583.656 315.127 580.421 305.522 573.95 301.883C567.682 298.041 557.47 296.12 543.316 296.12V539.677H435.338ZM543.923 203.611H569.704C584.465 203.611 591.845 187.535 591.845 155.384C591.845 134.557 590.228 120.908 586.993 114.438C583.757 107.967 577.691 104.732 568.794 104.732H543.923V203.611ZM858.757 544.53C816.092 544.53 783.436 531.69 760.788 506.009C738.344 480.127 727.121 442.82 727.121 394.089V140.522C727.121 94.8238 738.242 60.1455 760.485 36.4874C782.93 12.8293 815.687 1.0003 858.757 1.0003C901.827 1.0003 934.483 12.8293 956.726 36.4874C979.171 60.1455 990.393 94.8238 990.393 140.522V394.089C990.393 442.82 979.07 480.127 956.423 506.009C933.978 531.69 901.423 544.53 858.757 544.53ZM859.667 446.258C875.844 446.258 883.932 430.587 883.932 399.245V138.703C883.932 112.416 876.046 99.2724 860.274 99.2724C842.48 99.2724 833.583 112.719 833.583 139.612V399.851C833.583 416.432 835.605 428.362 839.649 435.642C843.693 442.719 850.366 446.258 859.667 446.258ZM1160.25 544.53C1111.51 544.53 1076.33 532.397 1054.69 508.133C1033.26 483.868 1022.54 445.247 1022.54 392.269V340.1H1128.1V406.827C1128.1 419.162 1129.92 428.868 1133.55 435.945C1137.4 442.82 1143.97 446.258 1153.27 446.258C1162.98 446.258 1169.65 443.427 1173.29 437.765C1177.13 432.103 1179.05 422.802 1179.05 409.861C1179.05 393.482 1177.43 379.833 1174.2 368.914C1170.96 357.793 1165.3 347.278 1157.21 337.37C1149.33 327.259 1138.31 315.532 1124.15 302.186L1076.23 256.69C1040.44 222.921 1022.54 184.3 1022.54 140.826C1022.54 95.3293 1033.06 60.651 1054.09 36.7907C1075.32 12.9304 1105.95 1.0003 1145.99 1.0003C1194.92 1.0003 1229.6 14.0426 1250.03 40.1271C1270.65 66.2117 1280.96 105.844 1280.96 159.024H1172.38V122.324C1172.38 115.044 1170.26 109.383 1166.01 105.339C1161.96 101.294 1156.4 99.2724 1149.33 99.2724C1140.83 99.2724 1134.57 101.699 1130.52 106.552C1126.68 111.203 1124.76 117.269 1124.76 124.75C1124.76 132.232 1126.78 140.32 1130.83 149.015C1134.87 157.71 1142.86 167.719 1154.79 179.043L1216.36 238.188C1228.69 249.916 1240.02 262.351 1250.33 275.495C1260.64 288.436 1268.93 303.601 1275.2 320.991C1281.47 338.179 1284.6 359.208 1284.6 384.079C1284.6 434.226 1275.3 473.555 1256.7 502.066C1238.3 530.375 1206.15 544.53 1160.25 544.53Z" fill="white" fill-opacity="0.3"/>
<path d="M0.999884 539.677H-0.000116348V540.677H0.999884V539.677ZM0.999884 5.85324V4.85324H-0.000116348V5.85324H0.999884ZM106.551 5.85324H107.551V4.85324H106.551V5.85324ZM106.551 219.686H105.551L107.525 219.913L106.551 219.686ZM156.294 5.85324V4.85324H155.5L155.32 5.62667L156.294 5.85324ZM263.665 5.85324L264.637 6.09067L264.939 4.85324H263.665V5.85324ZM203.913 250.32L202.942 250.083L202.883 250.323L202.943 250.562L203.913 250.32ZM276.101 539.677V540.677H277.381L277.071 539.435L276.101 539.677ZM165.393 539.677L164.418 539.897L164.594 540.677H165.393V539.677ZM107.158 281.258L108.133 281.038L106.158 281.258H107.158ZM107.158 539.677V540.677H108.158V539.677H107.158ZM0.999884 539.677H1.99988V5.85324H0.999884H-0.000116348V539.677H0.999884ZM0.999884 5.85324V6.85324H106.551V5.85324V4.85324H0.999884V5.85324ZM106.551 5.85324H105.551V219.686H106.551H107.551V5.85324H106.551ZM106.551 219.686L107.525 219.913L157.268 6.07982L156.294 5.85324L155.32 5.62667L105.577 219.459L106.551 219.686ZM156.294 5.85324V6.85324H263.665V5.85324V4.85324H156.294V5.85324ZM263.665 5.85324L262.694 5.61581L202.942 250.083L203.913 250.32L204.885 250.558L264.637 6.09067L263.665 5.85324ZM203.913 250.32L202.943 250.562L275.131 539.919L276.101 539.677L277.071 539.435L204.884 250.078L203.913 250.32ZM276.101 539.677V538.677H165.393V539.677V540.677H276.101V539.677ZM165.393 539.677L166.369 539.457L108.133 281.038L107.158 281.258L106.182 281.477L164.418 539.897L165.393 539.677ZM107.158 281.258H106.158V539.677H107.158H108.158V281.258H107.158ZM107.158 539.677V538.677H0.999884V539.677V540.677H107.158V539.677ZM289.75 539.677H288.75V540.677H289.75V539.677ZM289.75 5.85324V4.85324H288.75V5.85324H289.75ZM392.875 5.85324H393.875V4.85324H392.875V5.85324ZM392.875 539.677V540.677H393.875V539.677H392.875ZM289.75 539.677H290.75V5.85324H289.75H288.75V539.677H289.75ZM289.75 5.85324V6.85324H392.875V5.85324V4.85324H289.75V5.85324ZM392.875 5.85324H391.875V539.677H392.875H393.875V5.85324H392.875ZM392.875 539.677V538.677H289.75V539.677V540.677H392.875V539.677ZM435.338 539.677H434.338V540.677H435.338V539.677ZM435.338 5.85324V4.85324H434.338V5.85324H435.338ZM661 24.6584L660.331 25.4022L660.338 25.4076L661 24.6584ZM688.904 76.8275L687.925 77.0304L687.927 77.0407L688.904 76.8275ZM684.961 225.146L684.043 224.75L684.039 224.759L684.961 225.146ZM643.408 261.239L643.097 260.289L639.508 261.461L643.207 262.219L643.408 261.239ZM678.592 286.414L677.697 286.861L677.701 286.869L677.706 286.877L678.592 286.414ZM688.904 539.677V540.677H689.904V539.677H688.904ZM583.656 539.677H582.656V540.677H583.656V539.677ZM573.95 301.883L573.428 302.735L573.444 302.745L573.46 302.754L573.95 301.883ZM543.316 296.12V295.12H542.316V296.12H543.316ZM543.316 539.677V540.677H544.316V539.677H543.316ZM543.923 203.611H542.923V204.611H543.923V203.611ZM543.923 104.732V103.732H542.923V104.732H543.923ZM435.338 539.677H436.338V5.85324H435.338H434.338V539.677H435.338ZM435.338 5.85324V6.85324H599.125V5.85324V4.85324H435.338V5.85324ZM599.125 5.85324V6.85324C626.286 6.85324 646.631 13.0918 660.331 25.4022L661 24.6584L661.668 23.9146C647.464 11.1515 626.559 4.85324 599.125 4.85324V5.85324ZM661 24.6584L660.338 25.4076C674.094 37.5687 683.308 54.7473 687.925 77.0304L688.904 76.8275L689.883 76.6246C685.199 54.018 675.811 36.4172 661.662 23.9092L661 24.6584ZM688.904 76.8275L687.927 77.0407C692.761 99.195 695.184 125.306 695.184 155.384H696.184H697.184C697.184 125.206 694.753 98.9453 689.881 76.6143L688.904 76.8275ZM696.184 155.384H695.184C695.184 184.432 691.45 207.534 684.043 224.75L684.961 225.146L685.88 225.541C693.436 207.977 697.184 184.572 697.184 155.384H696.184ZM684.961 225.146L684.039 224.759C676.888 241.842 663.287 253.692 643.097 260.289L643.408 261.239L643.719 262.19C664.375 255.441 678.476 243.229 685.884 225.532L684.961 225.146ZM643.408 261.239L643.207 262.219C659.74 265.605 671.183 273.833 677.697 286.861L678.592 286.414L679.486 285.967C672.655 272.304 660.642 263.748 643.609 260.26L643.408 261.239ZM678.592 286.414L677.706 286.877C684.481 299.831 687.904 316.742 687.904 337.673H688.904H689.904C689.904 316.546 686.452 299.284 679.478 285.95L678.592 286.414ZM688.904 337.673H687.904V539.677H688.904H689.904V337.673H688.904ZM688.904 539.677V538.677H583.656V539.677V540.677H688.904V539.677ZM583.656 539.677H584.656V330.697H583.656H582.656V539.677H583.656ZM583.656 330.697H584.656C584.656 322.855 583.843 316.442 582.177 311.497C580.51 306.546 577.959 302.99 574.44 301.011L573.95 301.883L573.46 302.754C576.412 304.415 578.714 307.481 580.282 312.135C581.852 316.795 582.656 322.969 582.656 330.697H583.656ZM573.95 301.883L574.473 301.03C567.959 297.038 557.512 295.12 543.316 295.12V296.12V297.12C557.429 297.12 567.405 299.044 573.428 302.735L573.95 301.883ZM543.316 296.12H542.316V539.677H543.316H544.316V296.12H543.316ZM543.316 539.677V538.677H435.338V539.677V540.677H543.316V539.677ZM543.923 203.611V204.611H569.704V203.611V202.611H543.923V203.611ZM569.704 203.611V204.611C573.588 204.611 577.026 203.549 579.978 201.406C582.92 199.27 585.323 196.102 587.219 191.971C591 183.736 592.845 171.505 592.845 155.384H591.845H590.845C590.845 171.415 589.001 183.297 585.401 191.137C583.607 195.044 581.397 197.904 578.803 199.787C576.22 201.663 573.201 202.611 569.704 202.611V203.611ZM591.845 155.384H592.845C592.845 144.949 592.44 136.288 591.625 129.41C590.813 122.555 589.584 117.385 587.887 113.991L586.992 114.438L586.098 114.885C587.636 117.962 588.834 122.851 589.639 129.645C590.442 136.416 590.845 144.992 590.845 155.384H591.845ZM586.992 114.438L587.887 113.991C584.44 107.097 577.965 103.732 568.794 103.732V104.732V105.732C577.417 105.732 583.074 108.838 586.098 114.885L586.992 114.438ZM568.794 104.732V103.732H543.923V104.732V105.732H568.794V104.732ZM543.923 104.732H542.923V203.611H543.923H544.923V104.732H543.923ZM760.788 506.009L760.033 506.665L760.038 506.671L760.788 506.009ZM760.485 36.4874L759.76 35.7992L759.757 35.8025L760.485 36.4874ZM956.726 36.4874L955.997 37.1724L956 37.1757L956.726 36.4874ZM956.423 506.009L955.67 505.351L955.67 505.351L956.423 506.009ZM839.649 435.642L838.775 436.128L838.781 436.138L839.649 435.642ZM858.757 544.53V543.53C816.303 543.53 783.951 530.762 761.538 505.348L760.788 506.009L760.038 506.671C782.921 532.618 815.881 545.53 858.757 545.53V544.53ZM760.788 506.009L761.544 505.354C739.312 479.718 728.121 442.68 728.121 394.089H727.121H726.121C726.121 442.96 737.375 480.537 760.033 506.665L760.788 506.009ZM727.121 394.089H728.121V140.522H727.121H726.121V394.089H727.121ZM727.121 140.522H728.121C728.121 94.9743 739.206 60.581 761.214 37.1724L760.485 36.4874L759.757 35.8025C737.279 59.71 726.121 94.6733 726.121 140.522H727.121ZM760.485 36.4874L761.211 37.1757C783.411 13.7747 815.87 2.0003 858.757 2.0003V1.0003V0.000301361C815.505 0.000301361 782.448 11.884 759.76 35.7992L760.485 36.4874ZM858.757 1.0003V2.0003C901.645 2.0003 934 13.7749 955.997 37.1724L956.726 36.4874L957.455 35.8025C934.967 11.8838 902.009 0.000301361 858.757 0.000301361V1.0003ZM956.726 36.4874L956 37.1757C978.209 60.5845 989.393 94.9765 989.393 140.522H990.393H991.393C991.393 94.6712 980.133 59.7066 957.451 35.7992L956.726 36.4874ZM990.393 140.522H989.393V394.089H990.393H991.393V140.522H990.393ZM990.393 394.089H989.393C989.393 442.678 978.102 479.714 955.67 505.351L956.423 506.009L957.175 506.668C980.037 480.54 991.393 442.962 991.393 394.089H990.393ZM956.423 506.009L955.67 505.351C933.461 530.762 901.212 543.53 858.757 543.53V544.53V545.53C901.633 545.53 934.495 532.618 957.176 506.668L956.423 506.009ZM859.667 446.258V447.258C863.88 447.258 867.612 446.235 870.825 444.159C874.034 442.087 876.67 439.002 878.754 434.963C882.908 426.915 884.932 414.969 884.932 399.245H883.932H882.932C882.932 414.862 880.911 426.423 876.977 434.046C875.017 437.842 872.598 440.634 869.74 442.479C866.888 444.322 863.543 445.258 859.667 445.258V446.258ZM883.932 399.245H884.932V138.702H883.932H882.932V399.245H883.932ZM883.932 138.702H884.932C884.932 125.492 882.956 115.417 878.875 108.615C874.745 101.732 868.499 98.2724 860.274 98.2724V99.2724V100.272C867.821 100.272 873.404 103.384 877.16 109.644C880.965 115.986 882.932 125.626 882.932 138.702H883.932ZM860.274 99.2724V98.2724C851.082 98.2724 844.077 101.77 839.421 108.806C834.814 115.769 832.583 126.087 832.583 139.612H833.583H834.583C834.583 126.244 836.8 116.393 841.089 109.909C845.331 103.498 851.671 100.272 860.274 100.272V99.2724ZM833.583 139.612H832.583V399.851H833.583H834.583V139.612H833.583ZM833.583 399.851H832.583C832.583 416.465 834.6 428.614 838.775 436.127L839.649 435.642L840.523 435.156C836.609 428.111 834.583 416.4 834.583 399.851H833.583ZM839.649 435.642L838.781 436.138C843.031 443.576 850.068 447.258 859.667 447.258V446.258V445.258C850.664 445.258 844.355 441.862 840.517 435.146L839.649 435.642ZM1054.69 508.133L1053.95 508.795L1053.95 508.798L1054.69 508.133ZM1022.54 340.1V339.1H1021.54V340.1H1022.54ZM1128.1 340.1H1129.1V339.1H1128.1V340.1ZM1133.55 435.945L1132.67 436.402L1132.67 436.418L1132.68 436.433L1133.55 435.945ZM1173.29 437.765L1172.46 437.203L1172.45 437.214L1172.45 437.224L1173.29 437.765ZM1174.2 368.914L1173.24 369.193L1173.24 369.198L1174.2 368.914ZM1157.21 337.37L1156.42 337.985L1156.43 337.994L1156.44 338.002L1157.21 337.37ZM1124.15 302.186L1123.46 302.911L1123.47 302.914L1124.15 302.186ZM1076.23 256.69L1076.92 255.964L1076.92 255.962L1076.23 256.69ZM1054.09 36.7907L1053.34 36.126L1053.34 36.1295L1054.09 36.7907ZM1250.03 40.1271L1249.24 40.7436L1249.24 40.7474L1250.03 40.1271ZM1280.96 159.024V160.024H1281.96V159.024H1280.96ZM1172.38 159.024H1171.38V160.024H1172.38V159.024ZM1166.01 105.339L1165.3 106.046L1165.31 106.054L1165.32 106.063L1166.01 105.339ZM1130.52 106.552L1129.75 105.912L1129.75 105.915L1130.52 106.552ZM1154.79 179.043L1155.48 178.321L1155.47 178.317L1154.79 179.043ZM1216.36 238.188L1215.67 238.909L1215.67 238.913L1216.36 238.188ZM1250.33 275.495L1249.54 276.112L1249.55 276.118L1250.33 275.495ZM1275.2 320.991L1274.26 321.33L1274.26 321.334L1275.2 320.991ZM1256.7 502.066L1255.86 501.52L1255.86 501.521L1256.7 502.066ZM1160.25 544.53V543.53C1111.66 543.53 1076.81 531.432 1055.44 507.467L1054.69 508.133L1053.95 508.798C1075.85 533.363 1111.37 545.53 1160.25 545.53V544.53ZM1054.69 508.133L1055.44 507.471C1034.25 483.474 1023.54 445.148 1023.54 392.269H1022.54H1021.54C1021.54 445.345 1032.27 484.262 1053.95 508.795L1054.69 508.133ZM1022.54 392.269H1023.54V340.1H1022.54H1021.54V392.269H1022.54ZM1022.54 340.1V341.1H1128.1V340.1V339.1H1022.54V340.1ZM1128.1 340.1H1127.1V406.827H1128.1H1129.1V340.1H1128.1ZM1128.1 406.827H1127.1C1127.1 419.242 1128.92 429.127 1132.67 436.402L1133.55 435.945L1134.44 435.488C1130.91 428.609 1129.1 419.082 1129.1 406.827H1128.1ZM1133.55 435.945L1132.68 436.433C1136.74 443.687 1143.68 447.258 1153.27 447.258V446.258V445.258C1144.25 445.258 1138.06 441.953 1134.43 435.457L1133.55 435.945ZM1153.27 446.258V447.258C1163.15 447.258 1170.23 444.368 1174.13 438.306L1173.29 437.765L1172.45 437.224C1169.06 442.485 1162.8 445.258 1153.27 445.258V446.258ZM1173.29 437.765L1174.12 438.327C1178.13 432.407 1180.05 422.85 1180.05 409.861H1179.05H1178.05C1178.05 422.753 1176.13 431.799 1172.46 437.203L1173.29 437.765ZM1179.05 409.861H1180.05C1180.05 393.424 1178.43 379.672 1175.16 368.63L1174.2 368.914L1173.24 369.198C1176.44 379.994 1178.05 393.54 1178.05 409.861H1179.05ZM1174.2 368.914L1175.16 368.635C1171.88 357.371 1166.15 346.739 1157.99 336.737L1157.21 337.37L1156.44 338.002C1164.45 347.817 1170.04 358.214 1173.24 369.193L1174.2 368.914ZM1157.21 337.37L1158 336.755C1150.07 326.59 1139.01 314.823 1124.84 301.458L1124.15 302.186L1123.47 302.914C1137.6 316.24 1148.58 327.929 1156.42 337.985L1157.21 337.37ZM1124.15 302.186L1124.84 301.461L1076.92 255.964L1076.23 256.69L1075.54 257.415L1123.46 302.911L1124.15 302.186ZM1076.23 256.69L1076.92 255.962C1041.3 222.355 1023.54 183.987 1023.54 140.826H1022.54H1021.54C1021.54 184.613 1039.58 223.487 1075.54 257.417L1076.23 256.69ZM1022.54 140.826H1023.54C1023.54 95.4692 1034.03 61.0645 1054.84 37.4519L1054.09 36.7907L1053.34 36.1295C1032.09 60.2376 1021.54 95.1895 1021.54 140.826H1022.54ZM1054.09 36.7907L1054.84 37.4555C1075.83 13.8604 1106.16 2.0003 1145.99 2.0003V1.0003V0.000301361C1105.75 0.000301361 1074.81 12.0005 1053.34 36.126L1054.09 36.7907ZM1145.99 1.0003V2.0003C1194.77 2.0003 1229.08 14.9997 1249.24 40.7436L1250.03 40.1271L1250.81 39.5107C1230.12 13.0854 1195.08 0.000301361 1145.99 0.000301361V1.0003ZM1250.03 40.1271L1249.24 40.7474C1269.66 66.5771 1279.96 105.943 1279.96 159.024H1280.96H1281.96C1281.96 105.745 1271.64 65.8463 1250.81 39.5069L1250.03 40.1271ZM1280.96 159.024V158.024H1172.38V159.024V160.024H1280.96V159.024ZM1172.38 159.024H1173.38V122.324H1172.38H1171.38V159.024H1172.38ZM1172.38 122.324H1173.38C1173.38 114.841 1171.19 108.891 1166.7 104.614L1166.01 105.339L1165.32 106.063C1169.32 109.874 1171.38 115.248 1171.38 122.324H1172.38ZM1166.01 105.339L1166.72 104.631C1162.44 100.357 1156.6 98.2724 1149.33 98.2724V99.2724V100.272C1156.21 100.272 1161.49 102.231 1165.3 106.046L1166.01 105.339ZM1149.33 99.2724V98.2724C1140.65 98.2724 1134.05 100.759 1129.75 105.912L1130.52 106.552L1131.29 107.192C1135.08 102.639 1141.02 100.272 1149.33 100.272V99.2724ZM1130.52 106.552L1129.75 105.915C1125.73 110.785 1123.76 117.094 1123.76 124.75H1124.76H1125.76C1125.76 117.444 1127.63 111.62 1131.29 107.189L1130.52 106.552ZM1124.76 124.75H1123.76C1123.76 132.413 1125.83 140.646 1129.92 149.437L1130.83 149.015L1131.73 148.593C1127.73 139.995 1125.76 132.051 1125.76 124.75H1124.76ZM1130.83 149.015L1129.92 149.437C1134.04 158.299 1142.13 168.411 1154.1 179.768L1154.79 179.043L1155.47 178.317C1143.58 167.027 1135.7 157.121 1131.73 148.593L1130.83 149.015ZM1154.79 179.043L1154.09 179.764L1215.67 238.909L1216.36 238.188L1217.05 237.467L1155.48 178.321L1154.79 179.043ZM1216.36 238.188L1215.67 238.913C1227.97 250.608 1239.26 263.008 1249.54 276.112L1250.33 275.495L1251.12 274.878C1240.77 261.695 1229.42 249.224 1217.05 237.463L1216.36 238.188ZM1250.33 275.495L1249.55 276.118C1259.78 288.964 1268.02 304.031 1274.26 321.33L1275.2 320.991L1276.14 320.652C1269.84 303.171 1261.5 287.908 1251.11 274.872L1250.33 275.495ZM1275.2 320.991L1274.26 321.334C1280.48 338.38 1283.6 359.286 1283.6 384.079H1284.6H1285.6C1285.6 359.13 1282.46 337.977 1276.14 320.648L1275.2 320.991ZM1284.6 384.079H1283.6C1283.6 434.119 1274.32 473.231 1255.86 501.52L1256.7 502.066L1257.54 502.613C1276.28 473.88 1285.6 434.334 1285.6 384.079H1284.6ZM1256.7 502.066L1255.86 501.521C1237.71 529.45 1205.94 543.53 1160.25 543.53V544.53V545.53C1206.35 545.53 1238.89 531.301 1257.54 502.611L1256.7 502.066Z" fill="white" mask="url(#path-1-outside-1_151_145672)"/>
</g>
</svg>
