<svg width="32" height="32" viewBox="0 0 32 32" fill="none" xmlns="http://www.w3.org/2000/svg">
<g filter="url(#filter0_d_210_13126)">
<path d="M23.2594 9.85684L19.768 6.36622C19.6519 6.25011 19.5141 6.15801 19.3624 6.09518C19.2107 6.03234 19.0482 6 18.884 6C18.7198 6 18.5572 6.03234 18.4056 6.09518C18.2539 6.15801 18.1161 6.25011 18 6.36622L8.36641 15.9998C8.24983 16.1155 8.15741 16.2531 8.09451 16.4048C8.0316 16.5565 7.99948 16.7192 8.00001 16.8834V20.3748C8.00001 20.7063 8.1317 21.0243 8.36612 21.2587C8.60054 21.4931 8.91849 21.6248 9.25001 21.6248H22.375C22.5408 21.6248 22.6997 21.559 22.8169 21.4418C22.9342 21.3245 23 21.1656 23 20.9998C23 20.8341 22.9342 20.6751 22.8169 20.5579C22.6997 20.4407 22.5408 20.3748 22.375 20.3748H14.5094L23.2594 11.6248C23.3755 11.5087 23.4676 11.3709 23.5304 11.2192C23.5933 11.0676 23.6256 10.905 23.6256 10.7408C23.6256 10.5767 23.5933 10.4141 23.5304 10.2624C23.4676 10.1107 23.3755 9.97292 23.2594 9.85684ZM20.5 12.6162L17.0094 9.12481L18.8844 7.24981L22.375 10.7412L20.5 12.6162Z" fill="white"/>
</g>
<defs>
<filter id="filter0_d_210_13126" x="0" y="0" width="31.625" height="31.625" filterUnits="userSpaceOnUse" color-interpolation-filters="sRGB">
<feFlood flood-opacity="0" result="BackgroundImageFix"/>
<feColorMatrix in="SourceAlpha" type="matrix" values="0 0 0 0 0 0 0 0 0 0 0 0 0 0 0 0 0 0 127 0" result="hardAlpha"/>
<feOffset dy="2"/>
<feGaussianBlur stdDeviation="4"/>
<feComposite in2="hardAlpha" operator="out"/>
<feColorMatrix type="matrix" values="0 0 0 0 0 0 0 0 0 0 0 0 0 0 0 0 0 0 0.5 0"/>
<feBlend mode="normal" in2="BackgroundImageFix" result="effect1_dropShadow_210_13126"/>
<feBlend mode="normal" in="SourceGraphic" in2="effect1_dropShadow_210_13126" result="shape"/>
</filter>
</defs>
</svg>
