<svg width="30" height="33" viewBox="0 0 30 33" fill="none" xmlns="http://www.w3.org/2000/svg">
<g filter="url(#filter0_d_240_244855)">
<path d="M21.5672 9.30781L18.4422 6.18281C18.3841 6.12479 18.3152 6.07878 18.2393 6.04741C18.1634 6.01605 18.0821 5.99994 18 6H11.75C11.4185 6 11.1005 6.1317 10.8661 6.36612C10.6317 6.60054 10.5 6.91848 10.5 7.25V8.5H9.25C8.91848 8.5 8.60054 8.6317 8.36612 8.86612C8.1317 9.10054 8 9.41848 8 9.75V21C8 21.3315 8.1317 21.6495 8.36612 21.8839C8.60054 22.1183 8.91848 22.25 9.25 22.25H18C18.3315 22.25 18.6495 22.1183 18.8839 21.8839C19.1183 21.6495 19.25 21.3315 19.25 21V19.75H20.5C20.8315 19.75 21.1495 19.6183 21.3839 19.3839C21.6183 19.1495 21.75 18.8315 21.75 18.5V9.75C21.7501 9.6679 21.734 9.58659 21.7026 9.51072C21.6712 9.43485 21.6252 9.3659 21.5672 9.30781ZM15.5 19.125H11.75C11.5842 19.125 11.4253 19.0592 11.3081 18.9419C11.1908 18.8247 11.125 18.6658 11.125 18.5C11.125 18.3342 11.1908 18.1753 11.3081 18.0581C11.4253 17.9408 11.5842 17.875 11.75 17.875H15.5C15.6658 17.875 15.8247 17.9408 15.9419 18.0581C16.0592 18.1753 16.125 18.3342 16.125 18.5C16.125 18.6658 16.0592 18.8247 15.9419 18.9419C15.8247 19.0592 15.6658 19.125 15.5 19.125ZM15.5 16.625H11.75C11.5842 16.625 11.4253 16.5592 11.3081 16.4419C11.1908 16.3247 11.125 16.1658 11.125 16C11.125 15.8342 11.1908 15.6753 11.3081 15.5581C11.4253 15.4408 11.5842 15.375 11.75 15.375H15.5C15.6658 15.375 15.8247 15.4408 15.9419 15.5581C16.0592 15.6753 16.125 15.8342 16.125 16C16.125 16.1658 16.0592 16.3247 15.9419 16.4419C15.8247 16.5592 15.6658 16.625 15.5 16.625ZM20.5 18.5H19.25V12.25C19.2501 12.1679 19.234 12.0866 19.2026 12.0107C19.1712 11.9348 19.1252 11.8659 19.0672 11.8078L15.9422 8.68281C15.8841 8.62479 15.8152 8.57878 15.7393 8.54741C15.6634 8.51605 15.5821 8.49994 15.5 8.5H11.75V7.25H17.7414L20.5 10.0086V18.5Z" fill="white"/>
</g>
<defs>
<filter id="filter0_d_240_244855" x="0" y="0" width="29.75" height="32.25" filterUnits="userSpaceOnUse" color-interpolation-filters="sRGB">
<feFlood flood-opacity="0" result="BackgroundImageFix"/>
<feColorMatrix in="SourceAlpha" type="matrix" values="0 0 0 0 0 0 0 0 0 0 0 0 0 0 0 0 0 0 127 0" result="hardAlpha"/>
<feOffset dy="2"/>
<feGaussianBlur stdDeviation="4"/>
<feComposite in2="hardAlpha" operator="out"/>
<feColorMatrix type="matrix" values="0 0 0 0 0 0 0 0 0 0 0 0 0 0 0 0 0 0 0.5 0"/>
<feBlend mode="normal" in2="BackgroundImageFix" result="effect1_dropShadow_240_244855"/>
<feBlend mode="normal" in="SourceGraphic" in2="effect1_dropShadow_240_244855" result="shape"/>
</filter>
</defs>
</svg>
