<svg width="31" height="31" viewBox="0 0 31 31" fill="none" xmlns="http://www.w3.org/2000/svg">
<g filter="url(#filter0_d_296_43428)">
<path d="M23 6.625V9.4375C23 9.60326 22.9342 9.76223 22.8169 9.87944C22.6997 9.99665 22.5408 10.0625 22.375 10.0625C22.2092 10.0625 22.0503 9.99665 21.9331 9.87944C21.8158 9.76223 21.75 9.60326 21.75 9.4375V7.25H19.5625C19.3967 7.25 19.2378 7.18415 19.1206 7.06694C19.0033 6.94973 18.9375 6.79076 18.9375 6.625C18.9375 6.45924 19.0033 6.30027 19.1206 6.18306C19.2378 6.06585 19.3967 6 19.5625 6H22.375C22.5408 6 22.6997 6.06585 22.8169 6.18306C22.9342 6.30027 23 6.45924 23 6.625ZM22.375 16.9375C22.2092 16.9375 22.0503 17.0033 21.9331 17.1206C21.8158 17.2378 21.75 17.3967 21.75 17.5625V19.75H19.5625C19.3967 19.75 19.2378 19.8158 19.1206 19.9331C19.0033 20.0503 18.9375 20.2092 18.9375 20.375C18.9375 20.5408 19.0033 20.6997 19.1206 20.8169C19.2378 20.9342 19.3967 21 19.5625 21H22.375C22.5408 21 22.6997 20.9342 22.8169 20.8169C22.9342 20.6997 23 20.5408 23 20.375V17.5625C23 17.3967 22.9342 17.2378 22.8169 17.1206C22.6997 17.0033 22.5408 16.9375 22.375 16.9375ZM11.4375 19.75H9.25V17.5625C9.25 17.3967 9.18415 17.2378 9.06694 17.1206C8.94973 17.0033 8.79076 16.9375 8.625 16.9375C8.45924 16.9375 8.30027 17.0033 8.18306 17.1206C8.06585 17.2378 8 17.3967 8 17.5625V20.375C8 20.5408 8.06585 20.6997 8.18306 20.8169C8.30027 20.9342 8.45924 21 8.625 21H11.4375C11.6033 21 11.7622 20.9342 11.8794 20.8169C11.9967 20.6997 12.0625 20.5408 12.0625 20.375C12.0625 20.2092 11.9967 20.0503 11.8794 19.9331C11.7622 19.8158 11.6033 19.75 11.4375 19.75ZM8.625 10.0625C8.79076 10.0625 8.94973 9.99665 9.06694 9.87944C9.18415 9.76223 9.25 9.60326 9.25 9.4375V7.25H11.4375C11.6033 7.25 11.7622 7.18415 11.8794 7.06694C11.9967 6.94973 12.0625 6.79076 12.0625 6.625C12.0625 6.45924 11.9967 6.30027 11.8794 6.18306C11.7622 6.06585 11.6033 6 11.4375 6H8.625C8.45924 6 8.30027 6.06585 8.18306 6.18306C8.06585 6.30027 8 6.45924 8 6.625V9.4375C8 9.60326 8.06585 9.76223 8.18306 9.87944C8.30027 9.99665 8.45924 10.0625 8.625 10.0625ZM13.3906 14.5555C12.5416 14.9238 11.8037 15.5077 11.25 16.2492C11.1801 16.3421 11.1375 16.4526 11.127 16.5683C11.1164 16.684 11.1384 16.8004 11.1903 16.9043C11.2422 17.0083 11.3221 17.0957 11.421 17.1568C11.5199 17.2178 11.6338 17.2501 11.75 17.25H19.25C19.3662 17.2501 19.4801 17.2178 19.579 17.1568C19.6779 17.0957 19.7578 17.0083 19.8097 16.9043C19.8616 16.8004 19.8836 16.684 19.873 16.5683C19.8625 16.4526 19.8199 16.3421 19.75 16.2492C19.1963 15.5077 18.4584 14.9238 17.6094 14.5555C18.0748 14.1306 18.4008 13.5749 18.5447 12.9614C18.6887 12.3479 18.6438 11.7052 18.4159 11.1177C18.188 10.5301 17.7879 10.0252 17.2679 9.6692C16.748 9.31316 16.1325 9.12265 15.5023 9.12265C14.8722 9.12265 14.2567 9.31316 13.7368 9.6692C13.2168 10.0252 12.8167 10.5301 12.5888 11.1177C12.3609 11.7052 12.316 12.3479 12.4599 12.9614C12.6039 13.5749 12.9299 14.1306 13.3953 14.5555H13.3906Z" fill="white"/>
</g>
<defs>
<filter id="filter0_d_296_43428" x="0" y="0" width="31" height="31" filterUnits="userSpaceOnUse" color-interpolation-filters="sRGB">
<feFlood flood-opacity="0" result="BackgroundImageFix"/>
<feColorMatrix in="SourceAlpha" type="matrix" values="0 0 0 0 0 0 0 0 0 0 0 0 0 0 0 0 0 0 127 0" result="hardAlpha"/>
<feOffset dy="2"/>
<feGaussianBlur stdDeviation="4"/>
<feComposite in2="hardAlpha" operator="out"/>
<feColorMatrix type="matrix" values="0 0 0 0 0 0 0 0 0 0 0 0 0 0 0 0 0 0 0.5 0"/>
<feBlend mode="normal" in2="BackgroundImageFix" result="effect1_dropShadow_296_43428"/>
<feBlend mode="normal" in="SourceGraphic" in2="effect1_dropShadow_296_43428" result="shape"/>
</filter>
</defs>
</svg>
