<svg width="32" height="32" viewBox="0 0 32 32" fill="none" xmlns="http://www.w3.org/2000/svg">
<g filter="url(#filter0_d_296_43434)">
<path d="M14.0813 18.4334C13.7289 19.2037 12.5531 21.0006 9.24923 21.0006C9.08347 21.0006 8.9245 20.9347 8.80729 20.8175C8.69008 20.7003 8.62423 20.5413 8.62423 20.3756C8.62423 17.0717 10.4211 15.8959 11.1914 15.5436C11.2661 15.5095 11.3468 15.4905 11.4288 15.4876C11.5109 15.4847 11.5927 15.498 11.6696 15.5267C11.7465 15.5555 11.8169 15.599 11.877 15.655C11.937 15.711 11.9855 15.7782 12.0195 15.8529C12.0536 15.9276 12.0726 16.0083 12.0755 16.0903C12.0784 16.1724 12.0651 16.2542 12.0364 16.3311C12.0076 16.408 11.964 16.4784 11.9081 16.5385C11.8521 16.5985 11.7849 16.647 11.7102 16.6811C11.2078 16.91 10.0992 17.6467 9.90392 19.7209C11.9781 19.5256 12.7164 18.417 12.9438 17.9146C12.9778 17.84 13.0263 17.7727 13.0863 17.7167C13.1464 17.6608 13.2169 17.6172 13.2938 17.5884C13.3706 17.5597 13.4525 17.5464 13.5345 17.5493C13.6165 17.5522 13.6972 17.5712 13.7719 17.6053C13.8466 17.6393 13.9138 17.6878 13.9698 17.7478C14.0258 17.8079 14.0694 17.8784 14.0981 17.9553C14.1268 18.0322 14.1401 18.114 14.1372 18.196C14.1343 18.278 14.1153 18.3587 14.0813 18.4334ZM23.6125 7.18339C23.594 6.87865 23.4646 6.59122 23.2487 6.37533C23.0328 6.15945 22.7454 6.03004 22.4406 6.01152C21.4578 5.95293 18.9461 6.04277 16.8625 8.12636L12.9992 11.9928C12.9412 12.0509 12.8723 12.097 12.7965 12.1285C12.7206 12.16 12.6393 12.1762 12.5572 12.1763C12.3914 12.1765 12.2322 12.1107 12.1149 11.9936C11.9975 11.8764 11.9315 11.7174 11.9313 11.5515C11.9312 11.3857 11.9969 11.2266 12.1141 11.1092L14.1891 9.03339C14.2325 8.9897 14.2621 8.93413 14.274 8.87369C14.286 8.81324 14.2798 8.75061 14.2562 8.69367C14.2327 8.63673 14.1928 8.58802 14.1417 8.55366C14.0905 8.51931 14.0304 8.50084 13.9688 8.50058H11.9328C11.7682 8.49971 11.605 8.53159 11.4528 8.59436C11.3005 8.65713 11.1623 8.74953 11.0461 8.86621L8.36642 11.5475C8.20208 11.7117 8.08676 11.9185 8.03341 12.1446C7.98005 12.3707 7.99077 12.6072 8.06436 12.8276C8.13796 13.0479 8.2715 13.2434 8.45002 13.3921C8.62854 13.5408 8.84497 13.6368 9.07501 13.6693L12.0805 14.0889L15.5344 17.5428L15.9539 20.5498C15.9862 20.7799 16.0821 20.9963 16.231 21.1747C16.3798 21.353 16.5756 21.4862 16.7961 21.5592C16.9246 21.6021 17.0591 21.624 17.1945 21.624C17.3585 21.6243 17.521 21.5922 17.6725 21.5294C17.824 21.4667 17.9616 21.3746 18.0774 21.2584L20.7586 18.5787C20.8749 18.4623 20.9671 18.324 21.0299 18.1718C21.0926 18.0196 21.1247 17.8566 21.1242 17.692V15.656C21.1241 15.5943 21.1057 15.5339 21.0713 15.4826C21.0369 15.4313 20.9881 15.3913 20.931 15.3677C20.8739 15.3442 20.8111 15.338 20.7505 15.3501C20.6899 15.3622 20.6343 15.392 20.5906 15.4357L18.5149 17.5107C18.4541 17.5715 18.3816 17.6191 18.3016 17.6506C18.2217 17.682 18.1361 17.6967 18.0503 17.6936C17.9644 17.6905 17.8801 17.6698 17.8027 17.6327C17.7252 17.5956 17.6562 17.5429 17.6 17.4779C17.4975 17.3539 17.4454 17.1958 17.4541 17.0352C17.4628 16.8745 17.5316 16.723 17.6469 16.6107L21.4961 12.7615C23.5813 10.6771 23.6711 8.16543 23.6125 7.18183V7.18339Z" fill="white"/>
</g>
<defs>
<filter id="filter0_d_296_43434" x="0" y="0" width="31.625" height="31.624" filterUnits="userSpaceOnUse" color-interpolation-filters="sRGB">
<feFlood flood-opacity="0" result="BackgroundImageFix"/>
<feColorMatrix in="SourceAlpha" type="matrix" values="0 0 0 0 0 0 0 0 0 0 0 0 0 0 0 0 0 0 127 0" result="hardAlpha"/>
<feOffset dy="2"/>
<feGaussianBlur stdDeviation="4"/>
<feComposite in2="hardAlpha" operator="out"/>
<feColorMatrix type="matrix" values="0 0 0 0 0 0 0 0 0 0 0 0 0 0 0 0 0 0 0.5 0"/>
<feBlend mode="normal" in2="BackgroundImageFix" result="effect1_dropShadow_296_43434"/>
<feBlend mode="normal" in="SourceGraphic" in2="effect1_dropShadow_296_43434" result="shape"/>
</filter>
</defs>
</svg>
