<svg width="33" height="33" viewBox="0 0 33 33" fill="none" xmlns="http://www.w3.org/2000/svg">
<g filter="url(#filter0_d_210_13120)">
<path d="M24.6008 20.2836C24.6882 20.3707 24.7576 20.4742 24.8049 20.5882C24.8522 20.7021 24.8766 20.8243 24.8766 20.9477C24.8766 21.0711 24.8522 21.1933 24.8049 21.3072C24.7576 21.4212 24.6882 21.5247 24.6008 21.6118L23.6094 22.6008C23.5223 22.6882 23.4188 22.7576 23.3049 22.8049C23.1909 22.8522 23.0688 22.8766 22.9454 22.8766C22.822 22.8766 22.6998 22.8522 22.5858 22.8049C22.4719 22.7576 22.3684 22.6882 22.2813 22.6008L17.8626 18.1813L16.3594 22.1008C16.3594 22.1086 16.3532 22.1172 16.3493 22.1258C16.2536 22.3488 16.0945 22.5388 15.8917 22.672C15.6888 22.8052 15.4513 22.8758 15.2086 22.8751H15.1469C14.8939 22.8643 14.6502 22.7762 14.4488 22.6225C14.2475 22.4688 14.0982 22.257 14.0211 22.0157L9.93755 9.50943C9.86745 9.29071 9.85896 9.0569 9.91303 8.83367C9.96709 8.61045 10.0816 8.40643 10.244 8.24402C10.4064 8.08161 10.6104 7.96709 10.8337 7.91303C11.0569 7.85896 11.2907 7.86745 11.5094 7.93755L24.0157 12.0211C24.2547 12.1011 24.464 12.2514 24.616 12.4525C24.7681 12.6535 24.8558 12.8957 24.8677 13.1475C24.8796 13.3993 24.8152 13.6487 24.6828 13.8632C24.5504 14.0777 24.3562 14.2471 24.1258 14.3493L24.1008 14.3594L20.1813 15.8649L24.6008 20.2836ZM14.8751 7.87505C15.0408 7.87505 15.1998 7.8092 15.317 7.69199C15.4342 7.57478 15.5001 7.41581 15.5001 7.25005V6.62505C15.5001 6.45929 15.4342 6.30032 15.317 6.18311C15.1998 6.0659 15.0408 6.00005 14.8751 6.00005C14.7093 6.00005 14.5503 6.0659 14.4331 6.18311C14.3159 6.30032 14.2501 6.45929 14.2501 6.62505V7.25005C14.2501 7.41581 14.3159 7.57478 14.4331 7.69199C14.5503 7.8092 14.7093 7.87505 14.8751 7.87505ZM8.62505 13.5001H9.25005C9.41581 13.5001 9.57478 13.4342 9.69199 13.317C9.8092 13.1998 9.87505 13.0408 9.87505 12.8751C9.87505 12.7093 9.8092 12.5503 9.69199 12.4331C9.57478 12.3159 9.41581 12.2501 9.25005 12.2501H8.62505C8.45929 12.2501 8.30032 12.3159 8.18311 12.4331C8.0659 12.5503 8.00005 12.7093 8.00005 12.8751C8.00005 13.0408 8.0659 13.1998 8.18311 13.317C8.30032 13.4342 8.45929 13.5001 8.62505 13.5001ZM17.0954 8.43443C17.1688 8.47121 17.2488 8.49315 17.3307 8.499C17.4127 8.50485 17.4949 8.49449 17.5729 8.46852C17.6508 8.44254 17.7228 8.40146 17.7849 8.34762C17.8469 8.29378 17.8977 8.22823 17.9344 8.15474L18.5594 6.90474C18.6336 6.75649 18.6459 6.58484 18.5935 6.42756C18.5411 6.27028 18.4284 6.14024 18.2801 6.06607C18.1319 5.99189 17.9602 5.97964 17.8029 6.03202C17.6457 6.0844 17.5156 6.19711 17.4415 6.34536L16.8165 7.59536C16.7796 7.66876 16.7577 7.7487 16.7518 7.8306C16.7459 7.9125 16.7561 7.99477 16.782 8.07269C16.8079 8.15061 16.849 8.22266 16.9027 8.28473C16.9565 8.3468 17.0219 8.39767 17.0954 8.43443ZM9.59536 14.8165L8.34536 15.4415C8.19711 15.5156 8.0844 15.6457 8.03202 15.8029C7.97964 15.9602 7.99189 16.1319 8.06607 16.2801C8.14024 16.4284 8.27028 16.5411 8.42756 16.5935C8.58484 16.6459 8.75649 16.6336 8.90474 16.5594L10.1547 15.9344C10.2281 15.8977 10.2936 15.8469 10.3474 15.7848C10.4011 15.7228 10.4421 15.6508 10.4681 15.5729C10.494 15.4951 10.5044 15.4128 10.4985 15.331C10.4927 15.2491 10.4708 15.1692 10.434 15.0958C10.3973 15.0223 10.3465 14.9569 10.2845 14.9031C10.2224 14.8494 10.1504 14.8083 10.0725 14.7824C9.99467 14.7565 9.91244 14.7461 9.83057 14.752C9.74869 14.7578 9.66877 14.7797 9.59536 14.8165Z" fill="white"/>
</g>
<defs>
<filter id="filter0_d_210_13120" x="0" y="0" width="32.877" height="32.8765" filterUnits="userSpaceOnUse" color-interpolation-filters="sRGB">
<feFlood flood-opacity="0" result="BackgroundImageFix"/>
<feColorMatrix in="SourceAlpha" type="matrix" values="0 0 0 0 0 0 0 0 0 0 0 0 0 0 0 0 0 0 127 0" result="hardAlpha"/>
<feOffset dy="2"/>
<feGaussianBlur stdDeviation="4"/>
<feComposite in2="hardAlpha" operator="out"/>
<feColorMatrix type="matrix" values="0 0 0 0 0 0 0 0 0 0 0 0 0 0 0 0 0 0 0.5 0"/>
<feBlend mode="normal" in2="BackgroundImageFix" result="effect1_dropShadow_210_13120"/>
<feBlend mode="normal" in="SourceGraphic" in2="effect1_dropShadow_210_13120" result="shape"/>
</filter>
</defs>
</svg>
