<svg width="25" height="25" viewBox="0 0 25 25" fill="none" xmlns="http://www.w3.org/2000/svg">
<g filter="url(#filter0_dd_151_121473)">
<path d="M18.75 1H6.25C5.91848 1 5.60054 1.1317 5.36612 1.36612C5.1317 1.60054 5 1.91848 5 2.25V14.75C5 15.0815 5.1317 15.3995 5.36612 15.6339C5.60054 15.8683 5.91848 16 6.25 16H18.75C19.0815 16 19.3995 15.8683 19.6339 15.6339C19.8683 15.3995 20 15.0815 20 14.75V2.25C20 1.91848 19.8683 1.60054 19.6339 1.36612C19.3995 1.1317 19.0815 1 18.75 1ZM18.75 7.25C18.75 7.41576 18.6842 7.57473 18.5669 7.69194C18.4497 7.80915 18.2908 7.875 18.125 7.875C17.9592 7.875 17.8003 7.80915 17.6831 7.69194C17.5658 7.57473 17.5 7.41576 17.5 7.25V6.625H12.2984L9.95469 12.4844C9.90835 12.6005 9.82828 12.7 9.7248 12.7701C9.62133 12.8402 9.49921 12.8777 9.37422 12.8777C9.24923 12.8777 9.12711 12.8402 9.02364 12.7701C8.92016 12.7 8.84008 12.6005 8.79375 12.4844L6.29375 6.23438C6.26297 6.1581 6.24752 6.0765 6.24827 5.99425C6.24903 5.912 6.26598 5.8307 6.29815 5.755C6.33033 5.6793 6.3771 5.61067 6.43579 5.55305C6.49448 5.49542 6.56395 5.44992 6.64023 5.41914C6.71651 5.38836 6.79811 5.37291 6.88036 5.37366C6.96261 5.37442 7.04391 5.39137 7.11961 5.42354C7.19531 5.45572 7.26394 5.50249 7.32156 5.56118C7.37919 5.61987 7.42469 5.68935 7.45547 5.76562L9.375 10.5672L11.2945 5.76562C11.3413 5.65004 11.4215 5.55108 11.525 5.48148C11.6284 5.41187 11.7503 5.37478 11.875 5.375H18.125C18.2908 5.375 18.4497 5.44085 18.5669 5.55806C18.6842 5.67527 18.75 5.83424 18.75 6V7.25Z" fill="#1C2E63"/>
</g>
<defs>
<filter id="filter0_dd_151_121473" x="0" y="0" width="25" height="25" filterUnits="userSpaceOnUse" color-interpolation-filters="sRGB">
<feFlood flood-opacity="0" result="BackgroundImageFix"/>
<feColorMatrix in="SourceAlpha" type="matrix" values="0 0 0 0 0 0 0 0 0 0 0 0 0 0 0 0 0 0 127 0" result="hardAlpha"/>
<feMorphology radius="2" operator="erode" in="SourceAlpha" result="effect1_dropShadow_151_121473"/>
<feOffset dy="2"/>
<feGaussianBlur stdDeviation="2"/>
<feColorMatrix type="matrix" values="0 0 0 0 0.0666667 0 0 0 0 0.0941176 0 0 0 0 0.152941 0 0 0 0.1 0"/>
<feBlend mode="normal" in2="BackgroundImageFix" result="effect1_dropShadow_151_121473"/>
<feColorMatrix in="SourceAlpha" type="matrix" values="0 0 0 0 0 0 0 0 0 0 0 0 0 0 0 0 0 0 127 0" result="hardAlpha"/>
<feMorphology radius="1" operator="erode" in="SourceAlpha" result="effect2_dropShadow_151_121473"/>
<feOffset dy="4"/>
<feGaussianBlur stdDeviation="3"/>
<feComposite in2="hardAlpha" operator="out"/>
<feColorMatrix type="matrix" values="0 0 0 0 0.0666667 0 0 0 0 0.0941176 0 0 0 0 0.152941 0 0 0 0.1 0"/>
<feBlend mode="normal" in2="effect1_dropShadow_151_121473" result="effect2_dropShadow_151_121473"/>
<feBlend mode="normal" in="SourceGraphic" in2="effect2_dropShadow_151_121473" result="shape"/>
</filter>
</defs>
</svg>
