<svg width="33" height="31" viewBox="0 0 33 31" fill="none" xmlns="http://www.w3.org/2000/svg">
<g filter="url(#filter0_d_240_244861)">
<path d="M24.8756 15.375C24.8756 15.5408 24.8097 15.6997 24.6925 15.8169C24.5753 15.9342 24.4164 16 24.2506 16H23.0006V17.25C23.0006 17.4158 22.9347 17.5747 22.8175 17.6919C22.7003 17.8092 22.5414 17.875 22.3756 17.875C22.2098 17.875 22.0509 17.8092 21.9337 17.6919C21.8164 17.5747 21.7506 17.4158 21.7506 17.25V16H20.5006C20.3348 16 20.1759 15.9342 20.0587 15.8169C19.9414 15.6997 19.8756 15.5408 19.8756 15.375C19.8756 15.2092 19.9414 15.0503 20.0587 14.9331C20.1759 14.8158 20.3348 14.75 20.5006 14.75H21.7506V13.5C21.7506 13.3342 21.8164 13.1753 21.9337 13.0581C22.0509 12.9408 22.2098 12.875 22.3756 12.875C22.5414 12.875 22.7003 12.9408 22.8175 13.0581C22.9347 13.1753 23.0006 13.3342 23.0006 13.5V14.75H24.2506C24.4164 14.75 24.5753 14.8158 24.6925 14.9331C24.8097 15.0503 24.8756 15.2092 24.8756 15.375ZM9.87559 9.125H11.1256V10.375C11.1256 10.5408 11.1914 10.6997 11.3087 10.8169C11.4259 10.9342 11.5848 11 11.7506 11C11.9164 11 12.0753 10.9342 12.1925 10.8169C12.3097 10.6997 12.3756 10.5408 12.3756 10.375V9.125H13.6256C13.7914 9.125 13.9503 9.05915 14.0675 8.94194C14.1847 8.82473 14.2506 8.66576 14.2506 8.5C14.2506 8.33424 14.1847 8.17527 14.0675 8.05806C13.9503 7.94085 13.7914 7.875 13.6256 7.875H12.3756V6.625C12.3756 6.45924 12.3097 6.30027 12.1925 6.18306C12.0753 6.06585 11.9164 6 11.7506 6C11.5848 6 11.4259 6.06585 11.3087 6.18306C11.1914 6.30027 11.1256 6.45924 11.1256 6.625V7.875H9.87559C9.70983 7.875 9.55086 7.94085 9.43365 8.05806C9.31644 8.17527 9.25059 8.33424 9.25059 8.5C9.25059 8.66576 9.31644 8.82473 9.43365 8.94194C9.55086 9.05915 9.70983 9.125 9.87559 9.125ZM19.8756 18.5H19.2506V17.875C19.2506 17.7092 19.1847 17.5503 19.0675 17.4331C18.9503 17.3158 18.7914 17.25 18.6256 17.25C18.4598 17.25 18.3009 17.3158 18.1837 17.4331C18.0664 17.5503 18.0006 17.7092 18.0006 17.875V18.5H17.3756C17.2098 18.5 17.0509 18.5658 16.9337 18.6831C16.8164 18.8003 16.7506 18.9592 16.7506 19.125C16.7506 19.2908 16.8164 19.4497 16.9337 19.5669C17.0509 19.6842 17.2098 19.75 17.3756 19.75H18.0006V20.375C18.0006 20.5408 18.0664 20.6997 18.1837 20.8169C18.3009 20.9342 18.4598 21 18.6256 21C18.7914 21 18.9503 20.9342 19.0675 20.8169C19.1847 20.6997 19.2506 20.5408 19.2506 20.375V19.75H19.8756C20.0414 19.75 20.2003 19.6842 20.3175 19.5669C20.4347 19.4497 20.5006 19.2908 20.5006 19.125C20.5006 18.9592 20.4347 18.8003 20.3175 18.6831C20.2003 18.5658 20.0414 18.5 19.8756 18.5ZM22.6342 9.75L11.7506 20.6336C11.5162 20.8678 11.1984 20.9994 10.867 20.9994C10.5356 20.9994 10.2178 20.8678 9.98341 20.6336L8.36622 19.018C8.25011 18.9019 8.15801 18.7641 8.09518 18.6124C8.03234 18.4607 8 18.2982 8 18.134C8 17.9698 8.03234 17.8072 8.09518 17.6556C8.15801 17.5039 8.25011 17.3661 8.36622 17.25L19.2506 6.36641C19.3667 6.2503 19.5045 6.1582 19.6562 6.09537C19.8078 6.03253 19.9704 6.00019 20.1346 6.00019C20.2988 6.00019 20.4613 6.03253 20.613 6.09537C20.7647 6.1582 20.9025 6.2503 21.0186 6.36641L22.6342 7.98203C22.7503 8.09811 22.8424 8.23592 22.9052 8.3876C22.9681 8.53927 23.0004 8.70184 23.0004 8.86602C23.0004 9.03019 22.9681 9.19276 22.9052 9.34444C22.8424 9.49611 22.7503 9.63392 22.6342 9.75ZM21.7506 8.86641L20.1342 7.25L17.6342 9.75L19.2506 11.3664L21.7506 8.86641Z" fill="white"/>
</g>
<defs>
<filter id="filter0_d_240_244861" x="0" y="0" width="32.875" height="31" filterUnits="userSpaceOnUse" color-interpolation-filters="sRGB">
<feFlood flood-opacity="0" result="BackgroundImageFix"/>
<feColorMatrix in="SourceAlpha" type="matrix" values="0 0 0 0 0 0 0 0 0 0 0 0 0 0 0 0 0 0 127 0" result="hardAlpha"/>
<feOffset dy="2"/>
<feGaussianBlur stdDeviation="4"/>
<feComposite in2="hardAlpha" operator="out"/>
<feColorMatrix type="matrix" values="0 0 0 0 0 0 0 0 0 0 0 0 0 0 0 0 0 0 0.5 0"/>
<feBlend mode="normal" in2="BackgroundImageFix" result="effect1_dropShadow_240_244861"/>
<feBlend mode="normal" in="SourceGraphic" in2="effect1_dropShadow_240_244861" result="shape"/>
</filter>
</defs>
</svg>
