<svg width="34" height="31" viewBox="0 0 34 31" fill="none" xmlns="http://www.w3.org/2000/svg">
<g filter="url(#filter0_d_151_126316)">
<path d="M24.625 16.75C24.5168 16.6689 24.3852 16.625 24.25 16.625H23.625V8.5C23.625 7.83696 23.3616 7.20107 22.8928 6.73223C22.4239 6.26339 21.788 6 21.125 6H10.5C9.83696 6 9.20107 6.26339 8.73223 6.73223C8.26339 7.20107 8 7.83696 8 8.5C8 9.56328 8.78516 10.1828 8.875 10.25C8.98289 10.3317 9.11467 10.3756 9.25 10.375C9.38026 10.3746 9.50715 10.3336 9.61294 10.2576C9.71873 10.1816 9.79814 10.0744 9.84005 9.95111C9.88196 9.82778 9.8843 9.69443 9.84672 9.56971C9.80914 9.44499 9.73354 9.33512 9.63047 9.25547C9.62734 9.25156 9.25 8.94844 9.25 8.5C9.25 8.16848 9.3817 7.85054 9.61612 7.61612C9.85054 7.3817 10.1685 7.25 10.5 7.25C10.8315 7.25 11.1495 7.3817 11.3839 7.61612C11.6183 7.85054 11.75 8.16848 11.75 8.5V18.5C11.75 19.163 12.0134 19.7989 12.4822 20.2678C12.9511 20.7366 13.587 21 14.25 21H23C23.663 21 24.2989 20.7366 24.7678 20.2678C25.2366 19.7989 25.5 19.163 25.5 18.5C25.5 17.4367 24.7188 16.8172 24.625 16.75ZM15.5 11H20.5C20.6658 11 20.8247 11.0658 20.9419 11.1831C21.0592 11.3003 21.125 11.4592 21.125 11.625C21.125 11.7908 21.0592 11.9497 20.9419 12.0669C20.8247 12.1842 20.6658 12.25 20.5 12.25H15.5C15.3342 12.25 15.1753 12.1842 15.0581 12.0669C14.9408 11.9497 14.875 11.7908 14.875 11.625C14.875 11.4592 14.9408 11.3003 15.0581 11.1831C15.1753 11.0658 15.3342 11 15.5 11ZM14.875 14.125C14.875 13.9592 14.9408 13.8003 15.0581 13.6831C15.1753 13.5658 15.3342 13.5 15.5 13.5H20.5C20.6658 13.5 20.8247 13.5658 20.9419 13.6831C21.0592 13.8003 21.125 13.9592 21.125 14.125C21.125 14.2908 21.0592 14.4497 20.9419 14.5669C20.8247 14.6842 20.6658 14.75 20.5 14.75H15.5C15.3342 14.75 15.1753 14.6842 15.0581 14.5669C14.9408 14.4497 14.875 14.2908 14.875 14.125ZM23 19.75H15.7898C16.01 19.3702 16.1256 18.9389 16.125 18.5C16.1252 18.2881 16.0933 18.0774 16.0305 17.875H23.9992C24.1544 18.0471 24.2437 18.2684 24.2516 18.5C24.2516 18.6643 24.2192 18.827 24.1563 18.9787C24.0933 19.1305 24.0011 19.2683 23.8849 19.3844C23.7687 19.5005 23.6307 19.5926 23.4788 19.6553C23.327 19.718 23.1643 19.7502 23 19.75Z" fill="white"/>
</g>
<defs>
<filter id="filter0_d_151_126316" x="0" y="0" width="33.5" height="31" filterUnits="userSpaceOnUse" color-interpolation-filters="sRGB">
<feFlood flood-opacity="0" result="BackgroundImageFix"/>
<feColorMatrix in="SourceAlpha" type="matrix" values="0 0 0 0 0 0 0 0 0 0 0 0 0 0 0 0 0 0 127 0" result="hardAlpha"/>
<feOffset dy="2"/>
<feGaussianBlur stdDeviation="4"/>
<feComposite in2="hardAlpha" operator="out"/>
<feColorMatrix type="matrix" values="0 0 0 0 0 0 0 0 0 0 0 0 0 0 0 0 0 0 0.5 0"/>
<feBlend mode="normal" in2="BackgroundImageFix" result="effect1_dropShadow_151_126316"/>
<feBlend mode="normal" in="SourceGraphic" in2="effect1_dropShadow_151_126316" result="shape"/>
</filter>
</defs>
</svg>
