<svg width="24" height="24" viewBox="0 0 24 24" fill="none" xmlns="http://www.w3.org/2000/svg">
<g filter="url(#filter0_dd_151_116654)">
<path d="M17.5 1H6.25C5.91848 1 5.60054 1.1317 5.36612 1.36612C5.1317 1.60054 5 1.91848 5 2.25V13.5C5 13.8315 5.1317 14.1495 5.36612 14.3839C5.60054 14.6183 5.91848 14.75 6.25 14.75H17.5C17.8315 14.75 18.1495 14.6183 18.3839 14.3839C18.6183 14.1495 18.75 13.8315 18.75 13.5V2.25C18.75 1.91848 18.6183 1.60054 18.3839 1.36612C18.1495 1.1317 17.8315 1 17.5 1ZM6.25 2.25H11.875V13.5H6.25V2.25Z" fill="#1C2E63"/>
</g>
<defs>
<filter id="filter0_dd_151_116654" x="0" y="0" width="23.75" height="23.75" filterUnits="userSpaceOnUse" color-interpolation-filters="sRGB">
<feFlood flood-opacity="0" result="BackgroundImageFix"/>
<feColorMatrix in="SourceAlpha" type="matrix" values="0 0 0 0 0 0 0 0 0 0 0 0 0 0 0 0 0 0 127 0" result="hardAlpha"/>
<feMorphology radius="2" operator="erode" in="SourceAlpha" result="effect1_dropShadow_151_116654"/>
<feOffset dy="2"/>
<feGaussianBlur stdDeviation="2"/>
<feColorMatrix type="matrix" values="0 0 0 0 0.0666667 0 0 0 0 0.0941176 0 0 0 0 0.152941 0 0 0 0.1 0"/>
<feBlend mode="normal" in2="BackgroundImageFix" result="effect1_dropShadow_151_116654"/>
<feColorMatrix in="SourceAlpha" type="matrix" values="0 0 0 0 0 0 0 0 0 0 0 0 0 0 0 0 0 0 127 0" result="hardAlpha"/>
<feMorphology radius="1" operator="erode" in="SourceAlpha" result="effect2_dropShadow_151_116654"/>
<feOffset dy="4"/>
<feGaussianBlur stdDeviation="3"/>
<feComposite in2="hardAlpha" operator="out"/>
<feColorMatrix type="matrix" values="0 0 0 0 0.0666667 0 0 0 0 0.0941176 0 0 0 0 0.152941 0 0 0 0.1 0"/>
<feBlend mode="normal" in2="effect1_dropShadow_151_116654" result="effect2_dropShadow_151_116654"/>
<feBlend mode="normal" in="SourceGraphic" in2="effect2_dropShadow_151_116654" result="shape"/>
</filter>
</defs>
</svg>
