<svg width="30" height="33" viewBox="0 0 30 33" fill="none" xmlns="http://www.w3.org/2000/svg">
<g filter="url(#filter0_d_242_244867)">
<path d="M21.5672 10.5578L17.1922 6.18281C17.1341 6.12479 17.0652 6.07878 16.9893 6.04741C16.9134 6.01605 16.8321 5.99994 16.75 6H9.25C8.91848 6 8.60054 6.1317 8.36612 6.36612C8.1317 6.60054 8 6.91848 8 7.25V21C8 21.3315 8.1317 21.6495 8.36612 21.8839C8.60054 22.1183 8.91848 22.25 9.25 22.25H20.5C20.8315 22.25 21.1495 22.1183 21.3839 21.8839C21.6183 21.6495 21.75 21.3315 21.75 21V11C21.7501 10.9179 21.734 10.8366 21.7026 10.7607C21.6712 10.6848 21.6252 10.6159 21.5672 10.5578ZM16.75 16.625H15.5V17.875C15.5 18.0408 15.4342 18.1997 15.3169 18.3169C15.1997 18.4342 15.0408 18.5 14.875 18.5C14.7092 18.5 14.5503 18.4342 14.4331 18.3169C14.3158 18.1997 14.25 18.0408 14.25 17.875V16.625H13C12.8342 16.625 12.6753 16.5592 12.5581 16.4419C12.4408 16.3247 12.375 16.1658 12.375 16C12.375 15.8342 12.4408 15.6753 12.5581 15.5581C12.6753 15.4408 12.8342 15.375 13 15.375H14.25V14.125C14.25 13.9592 14.3158 13.8003 14.4331 13.6831C14.5503 13.5658 14.7092 13.5 14.875 13.5C15.0408 13.5 15.1997 13.5658 15.3169 13.6831C15.4342 13.8003 15.5 13.9592 15.5 14.125V15.375H16.75C16.9158 15.375 17.0747 15.4408 17.1919 15.5581C17.3092 15.6753 17.375 15.8342 17.375 16C17.375 16.1658 17.3092 16.3247 17.1919 16.4419C17.0747 16.5592 16.9158 16.625 16.75 16.625ZM16.75 11V7.50859L20.2414 11H16.75Z" fill="white"/>
</g>
<defs>
<filter id="filter0_d_242_244867" x="0" y="0" width="29.75" height="32.25" filterUnits="userSpaceOnUse" color-interpolation-filters="sRGB">
<feFlood flood-opacity="0" result="BackgroundImageFix"/>
<feColorMatrix in="SourceAlpha" type="matrix" values="0 0 0 0 0 0 0 0 0 0 0 0 0 0 0 0 0 0 127 0" result="hardAlpha"/>
<feOffset dy="2"/>
<feGaussianBlur stdDeviation="4"/>
<feComposite in2="hardAlpha" operator="out"/>
<feColorMatrix type="matrix" values="0 0 0 0 0 0 0 0 0 0 0 0 0 0 0 0 0 0 0.5 0"/>
<feBlend mode="normal" in2="BackgroundImageFix" result="effect1_dropShadow_242_244867"/>
<feBlend mode="normal" in="SourceGraphic" in2="effect1_dropShadow_242_244867" result="shape"/>
</filter>
</defs>
</svg>
