<svg width="30" height="33" viewBox="0 0 30 33" fill="none" xmlns="http://www.w3.org/2000/svg">
<g filter="url(#filter0_d_240_244858)">
<path d="M20.5 6H9.25C8.91848 6 8.60054 6.1317 8.36612 6.36612C8.1317 6.60054 8 6.91848 8 7.25V21C8 21.3315 8.1317 21.6495 8.36612 21.8839C8.60054 22.1183 8.91848 22.25 9.25 22.25H20.5C20.8315 22.25 21.1495 22.1183 21.3839 21.8839C21.6183 21.6495 21.75 21.3315 21.75 21V7.25C21.75 6.91848 21.6183 6.60054 21.3839 6.36612C21.1495 6.1317 20.8315 6 20.5 6ZM19.25 11C19.25 11.1658 19.1842 11.3247 19.0669 11.4419C18.9497 11.5592 18.7908 11.625 18.625 11.625C18.4592 11.625 18.3003 11.5592 18.1831 11.4419C18.0658 11.3247 18 11.1658 18 11V9.75H12.375L15.375 13.75C15.4561 13.8582 15.5 13.9898 15.5 14.125C15.5 14.2602 15.4561 14.3918 15.375 14.5L12.375 18.5H18V17.25C18 17.0842 18.0658 16.9253 18.1831 16.8081C18.3003 16.6908 18.4592 16.625 18.625 16.625C18.7908 16.625 18.9497 16.6908 19.0669 16.8081C19.1842 16.9253 19.25 17.0842 19.25 17.25V19.125C19.25 19.2908 19.1842 19.4497 19.0669 19.5669C18.9497 19.6842 18.7908 19.75 18.625 19.75H11.125C11.0089 19.75 10.8952 19.7177 10.7964 19.6567C10.6977 19.5956 10.6179 19.5083 10.566 19.4045C10.5141 19.3007 10.4921 19.1845 10.5025 19.0689C10.5129 18.9533 10.5554 18.8429 10.625 18.75L14.0938 14.125L10.625 9.5C10.5554 9.40714 10.5129 9.29673 10.5025 9.18113C10.4921 9.06553 10.5141 8.94931 10.566 8.84549C10.6179 8.74168 10.6977 8.65436 10.7964 8.59334C10.8952 8.53232 11.0089 8.5 11.125 8.5H18.625C18.7908 8.5 18.9497 8.56585 19.0669 8.68306C19.1842 8.80027 19.25 8.95924 19.25 9.125V11Z" fill="white"/>
</g>
<defs>
<filter id="filter0_d_240_244858" x="0" y="0" width="29.75" height="32.25" filterUnits="userSpaceOnUse" color-interpolation-filters="sRGB">
<feFlood flood-opacity="0" result="BackgroundImageFix"/>
<feColorMatrix in="SourceAlpha" type="matrix" values="0 0 0 0 0 0 0 0 0 0 0 0 0 0 0 0 0 0 127 0" result="hardAlpha"/>
<feOffset dy="2"/>
<feGaussianBlur stdDeviation="4"/>
<feComposite in2="hardAlpha" operator="out"/>
<feColorMatrix type="matrix" values="0 0 0 0 0 0 0 0 0 0 0 0 0 0 0 0 0 0 0.5 0"/>
<feBlend mode="normal" in2="BackgroundImageFix" result="effect1_dropShadow_240_244858"/>
<feBlend mode="normal" in="SourceGraphic" in2="effect1_dropShadow_240_244858" result="shape"/>
</filter>
</defs>
</svg>
