<svg width="25" height="25" viewBox="0 0 25 25" fill="none" xmlns="http://www.w3.org/2000/svg">
<g filter="url(#filter0_dd_151_116658)">
<path d="M18.75 1H6.25C5.91848 1 5.60054 1.1317 5.36612 1.36612C5.1317 1.60054 5 1.91848 5 2.25V14.75C5 15.0815 5.1317 15.3995 5.36612 15.6339C5.60054 15.8683 5.91848 16 6.25 16H18.75C19.0815 16 19.3995 15.8683 19.6339 15.6339C19.8683 15.3995 20 15.0815 20 14.75V2.25C20 1.91848 19.8683 1.60054 19.6339 1.36612C19.3995 1.1317 19.0815 1 18.75 1ZM13.9328 4.56719C13.8155 4.44991 13.7497 4.29085 13.7497 4.125C13.7497 3.95915 13.8155 3.80009 13.9328 3.68281C14.0501 3.56554 14.2091 3.49965 14.375 3.49965C14.5409 3.49965 14.6999 3.56554 14.8172 3.68281L15.625 4.49141L16.4328 3.68281C16.5501 3.56554 16.7091 3.49965 16.875 3.49965C17.0409 3.49965 17.1999 3.56554 17.3172 3.68281C17.4345 3.80009 17.5003 3.95915 17.5003 4.125C17.5003 4.29085 17.4345 4.44991 17.3172 4.56719L16.5086 5.375L17.3172 6.18281C17.3753 6.24088 17.4213 6.30982 17.4527 6.38569C17.4842 6.46156 17.5003 6.54288 17.5003 6.625C17.5003 6.70712 17.4842 6.78844 17.4527 6.86431C17.4213 6.94018 17.3753 7.00912 17.3172 7.06719C17.2591 7.12526 17.1902 7.17132 17.1143 7.20275C17.0384 7.23417 16.9571 7.25035 16.875 7.25035C16.7929 7.25035 16.7116 7.23417 16.6357 7.20275C16.5598 7.17132 16.4909 7.12526 16.4328 7.06719L15.625 6.25859L14.8172 7.06719C14.6999 7.18446 14.5409 7.25035 14.375 7.25035C14.2091 7.25035 14.0501 7.18446 13.9328 7.06719C13.8155 6.94991 13.7497 6.79085 13.7497 6.625C13.7497 6.45915 13.8155 6.30009 13.9328 6.18281L14.7414 5.375L13.9328 4.56719ZM11.25 12.25H10V13.5C10 13.6658 9.93415 13.8247 9.81694 13.9419C9.69973 14.0592 9.54076 14.125 9.375 14.125C9.20924 14.125 9.05027 14.0592 8.93306 13.9419C8.81585 13.8247 8.75 13.6658 8.75 13.5V12.25H7.5C7.33424 12.25 7.17527 12.1842 7.05806 12.0669C6.94085 11.9497 6.875 11.7908 6.875 11.625C6.875 11.4592 6.94085 11.3003 7.05806 11.1831C7.17527 11.0658 7.33424 11 7.5 11H8.75V9.75C8.75 9.58424 8.81585 9.42527 8.93306 9.30806C9.05027 9.19085 9.20924 9.125 9.375 9.125C9.54076 9.125 9.69973 9.19085 9.81694 9.30806C9.93415 9.42527 10 9.58424 10 9.75V11H11.25C11.4158 11 11.5747 11.0658 11.6919 11.1831C11.8092 11.3003 11.875 11.4592 11.875 11.625C11.875 11.7908 11.8092 11.9497 11.6919 12.0669C11.5747 12.1842 11.4158 12.25 11.25 12.25ZM11.25 6H7.5C7.33424 6 7.17527 5.93415 7.05806 5.81694C6.94085 5.69973 6.875 5.54076 6.875 5.375C6.875 5.20924 6.94085 5.05027 7.05806 4.93306C7.17527 4.81585 7.33424 4.75 7.5 4.75H11.25C11.4158 4.75 11.5747 4.81585 11.6919 4.93306C11.8092 5.05027 11.875 5.20924 11.875 5.375C11.875 5.54076 11.8092 5.69973 11.6919 5.81694C11.5747 5.93415 11.4158 6 11.25 6ZM17.5 13.5H13.75C13.5842 13.5 13.4253 13.4342 13.3081 13.3169C13.1908 13.1997 13.125 13.0408 13.125 12.875C13.125 12.7092 13.1908 12.5503 13.3081 12.4331C13.4253 12.3158 13.5842 12.25 13.75 12.25H17.5C17.6658 12.25 17.8247 12.3158 17.9419 12.4331C18.0592 12.5503 18.125 12.7092 18.125 12.875C18.125 13.0408 18.0592 13.1997 17.9419 13.3169C17.8247 13.4342 17.6658 13.5 17.5 13.5ZM17.5 11H13.75C13.5842 11 13.4253 10.9342 13.3081 10.8169C13.1908 10.6997 13.125 10.5408 13.125 10.375C13.125 10.2092 13.1908 10.0503 13.3081 9.93306C13.4253 9.81585 13.5842 9.75 13.75 9.75H17.5C17.6658 9.75 17.8247 9.81585 17.9419 9.93306C18.0592 10.0503 18.125 10.2092 18.125 10.375C18.125 10.5408 18.0592 10.6997 17.9419 10.8169C17.8247 10.9342 17.6658 11 17.5 11Z" fill="#1C2E63"/>
</g>
<defs>
<filter id="filter0_dd_151_116658" x="0" y="0" width="25" height="25" filterUnits="userSpaceOnUse" color-interpolation-filters="sRGB">
<feFlood flood-opacity="0" result="BackgroundImageFix"/>
<feColorMatrix in="SourceAlpha" type="matrix" values="0 0 0 0 0 0 0 0 0 0 0 0 0 0 0 0 0 0 127 0" result="hardAlpha"/>
<feMorphology radius="2" operator="erode" in="SourceAlpha" result="effect1_dropShadow_151_116658"/>
<feOffset dy="2"/>
<feGaussianBlur stdDeviation="2"/>
<feColorMatrix type="matrix" values="0 0 0 0 0.0666667 0 0 0 0 0.0941176 0 0 0 0 0.152941 0 0 0 0.1 0"/>
<feBlend mode="normal" in2="BackgroundImageFix" result="effect1_dropShadow_151_116658"/>
<feColorMatrix in="SourceAlpha" type="matrix" values="0 0 0 0 0 0 0 0 0 0 0 0 0 0 0 0 0 0 127 0" result="hardAlpha"/>
<feMorphology radius="1" operator="erode" in="SourceAlpha" result="effect2_dropShadow_151_116658"/>
<feOffset dy="4"/>
<feGaussianBlur stdDeviation="3"/>
<feComposite in2="hardAlpha" operator="out"/>
<feColorMatrix type="matrix" values="0 0 0 0 0.0666667 0 0 0 0 0.0941176 0 0 0 0 0.152941 0 0 0 0.1 0"/>
<feBlend mode="normal" in2="effect1_dropShadow_151_116658" result="effect2_dropShadow_151_116658"/>
<feBlend mode="normal" in="SourceGraphic" in2="effect2_dropShadow_151_116658" result="shape"/>
</filter>
</defs>
</svg>
