<svg width="35" height="32" viewBox="0 0 35 32" fill="none" xmlns="http://www.w3.org/2000/svg">
<g filter="url(#filter0_d_203_229714)">
<path d="M23.6241 9.75V9.4375C23.6233 8.76035 23.4225 8.09853 23.0469 7.53508C22.6714 6.97163 22.1377 6.53166 21.513 6.27037C20.8883 6.00909 20.2004 5.93813 19.5355 6.06641C18.8706 6.19468 18.2584 6.51648 17.7757 6.99141C17.7472 7.02018 17.7246 7.05433 17.7093 7.09187C17.694 7.12942 17.6863 7.16962 17.6866 7.21016V14.1414C17.6868 14.1977 17.7022 14.253 17.7312 14.3013C17.7601 14.3496 17.8016 14.3892 17.8513 14.4159C17.9009 14.4425 17.9568 14.4553 18.0131 14.4528C18.0694 14.4502 18.124 14.4326 18.171 14.4016C18.7653 14.0205 19.4557 13.8162 20.1616 13.8125C20.3251 13.8095 20.4834 13.8692 20.6042 13.9793C20.7249 14.0895 20.7989 14.2417 20.8109 14.4047C20.8153 14.4895 20.8025 14.5743 20.773 14.654C20.7436 14.7336 20.6983 14.8064 20.6398 14.868C20.5813 14.9296 20.5109 14.9785 20.4329 15.012C20.3548 15.0454 20.2708 15.0626 20.1859 15.0625C19.5228 15.0625 18.8869 15.3259 18.4181 15.7947C17.9493 16.2636 17.6859 16.8995 17.6859 17.5625V20.2094C17.6858 20.2561 17.6962 20.3023 17.7164 20.3445C17.7365 20.3867 17.7659 20.4238 17.8023 20.4531C18.2458 20.8202 18.768 21.08 19.3282 21.2124C19.8885 21.3448 20.4717 21.3462 21.0326 21.2165C21.5935 21.0868 22.1169 20.8295 22.5622 20.4646C23.0075 20.0997 23.3626 19.637 23.5999 19.1125C23.6238 19.0598 23.6326 19.0014 23.6253 18.944C23.6179 18.8865 23.5948 18.8323 23.5584 18.7872C23.522 18.7422 23.4738 18.7081 23.4192 18.6888C23.3646 18.6696 23.3057 18.6659 23.2491 18.6781C22.8596 18.7674 22.4613 18.8125 22.0616 18.8125H21.4577C21.2965 18.8145 21.1405 18.7554 21.0209 18.6472C20.9014 18.539 20.8272 18.3896 20.8132 18.2289C20.8075 18.1434 20.8195 18.0577 20.8484 17.977C20.8772 17.8963 20.9223 17.8224 20.981 17.7599C21.0396 17.6975 21.1104 17.6477 21.1891 17.6137C21.2677 17.5797 21.3525 17.5623 21.4382 17.5625H22.0632C22.7162 17.5635 23.3596 17.4058 23.9382 17.1031C24.6234 16.7463 25.1926 16.2015 25.5791 15.5326C25.9656 14.8637 26.1534 14.0985 26.1205 13.3266C26.0875 12.5548 25.8351 11.8084 25.393 11.1749C24.9509 10.5414 24.3373 10.0471 23.6241 9.75ZM22.6866 12.5625H22.3741C21.6282 12.5625 20.9129 12.2662 20.3854 11.7387C19.858 11.2113 19.5616 10.4959 19.5616 9.75V9.4375C19.5616 9.27174 19.6275 9.11277 19.7447 8.99556C19.8619 8.87835 20.0209 8.8125 20.1866 8.8125C20.3524 8.8125 20.5114 8.87835 20.6286 8.99556C20.7458 9.11277 20.8116 9.27174 20.8116 9.4375V9.75C20.8116 9.95519 20.8521 10.1584 20.9306 10.3479C21.0091 10.5375 21.1242 10.7098 21.2693 10.8549C21.5623 11.1479 21.9597 11.3125 22.3741 11.3125H22.6866C22.8524 11.3125 23.0114 11.3783 23.1286 11.4956C23.2458 11.6128 23.3116 11.7717 23.3116 11.9375C23.3116 12.1033 23.2458 12.2622 23.1286 12.3794C23.0114 12.4967 22.8524 12.5625 22.6866 12.5625ZM13.9366 6C13.0253 6.00103 12.1515 6.36353 11.5071 7.00796C10.8627 7.65239 10.5002 8.52614 10.4991 9.4375V9.75C9.78612 10.0473 9.17264 10.5417 8.73065 11.1753C8.28865 11.8089 8.03647 12.5553 8.00366 13.3271C7.97086 14.099 8.15881 14.8641 8.54545 15.5329C8.9321 16.2017 9.50142 16.7464 10.1866 17.1031C10.7652 17.4058 11.4087 17.5635 12.0616 17.5625H12.6656C12.8271 17.5601 12.9835 17.619 13.1034 17.7273C13.2232 17.8355 13.2976 17.9852 13.3116 18.1461C13.3173 18.2316 13.3054 18.3173 13.2765 18.398C13.2476 18.4787 13.2025 18.5526 13.1439 18.6151C13.0853 18.6775 13.0144 18.7273 12.9358 18.7613C12.8571 18.7953 12.7723 18.8127 12.6866 18.8125H12.0616C11.6617 18.8127 11.2631 18.7673 10.8734 18.6773C10.8168 18.665 10.7579 18.6686 10.7033 18.6878C10.6487 18.7069 10.6005 18.7409 10.564 18.7859C10.5276 18.8308 10.5043 18.885 10.4969 18.9424C10.4894 18.9998 10.498 19.0582 10.5218 19.1109C10.7591 19.6356 11.1142 20.0984 11.5594 20.4635C12.0047 20.8285 12.5282 21.086 13.0891 21.2158C13.6501 21.3457 14.2334 21.3444 14.7938 21.2121C15.3542 21.0799 15.8766 20.8201 16.3202 20.4531C16.3566 20.4238 16.386 20.3867 16.4061 20.3445C16.4263 20.3023 16.4367 20.2561 16.4366 20.2094V17.5625C16.4366 16.8995 16.1733 16.2636 15.7044 15.7947C15.2356 15.3259 14.5997 15.0625 13.9366 15.0625C13.8517 15.0626 13.7677 15.0454 13.6896 15.012C13.6116 14.9785 13.5412 14.9296 13.4827 14.868C13.4242 14.8064 13.3789 14.7336 13.3495 14.654C13.3201 14.5743 13.3072 14.4895 13.3116 14.4047C13.3236 14.2415 13.3977 14.0892 13.5186 13.979C13.6395 13.8689 13.7981 13.8093 13.9616 13.8125C14.6676 13.8162 15.358 14.0205 15.9523 14.4016C15.9993 14.4326 16.0539 14.4502 16.1102 14.4528C16.1665 14.4553 16.2224 14.4425 16.272 14.4159C16.3216 14.3892 16.3632 14.3496 16.3921 14.3013C16.4211 14.253 16.4365 14.1977 16.4366 14.1414V7.21016C16.4369 7.12813 16.4049 7.04928 16.3476 6.99063C15.7059 6.35564 14.8394 5.99964 13.9366 6ZM14.5616 9.75C14.5616 10.4959 14.2653 11.2113 13.7379 11.7387C13.2104 12.2662 12.4951 12.5625 11.7491 12.5625H11.4366C11.2709 12.5625 11.1119 12.4967 10.9947 12.3794C10.8775 12.2622 10.8116 12.1033 10.8116 11.9375C10.8116 11.7717 10.8775 11.6128 10.9947 11.4956C11.1119 11.3783 11.2709 11.3125 11.4366 11.3125H11.7491C11.9543 11.3125 12.1575 11.2721 12.3471 11.1936C12.5367 11.115 12.7089 10.9999 12.854 10.8549C12.9991 10.7098 13.1142 10.5375 13.1927 10.3479C13.2712 10.1584 13.3116 9.95519 13.3116 9.75V9.4375C13.3116 9.27174 13.3775 9.11277 13.4947 8.99556C13.6119 8.87835 13.7709 8.8125 13.9366 8.8125C14.1024 8.8125 14.2614 8.87835 14.3786 8.99556C14.4958 9.11277 14.5616 9.27174 14.5616 9.4375V9.75Z" fill="white"/>
</g>
<defs>
<filter id="filter0_d_203_229714" x="0" y="0" width="34.125" height="31.3127" filterUnits="userSpaceOnUse" color-interpolation-filters="sRGB">
<feFlood flood-opacity="0" result="BackgroundImageFix"/>
<feColorMatrix in="SourceAlpha" type="matrix" values="0 0 0 0 0 0 0 0 0 0 0 0 0 0 0 0 0 0 127 0" result="hardAlpha"/>
<feOffset dy="2"/>
<feGaussianBlur stdDeviation="4"/>
<feComposite in2="hardAlpha" operator="out"/>
<feColorMatrix type="matrix" values="0 0 0 0 0 0 0 0 0 0 0 0 0 0 0 0 0 0 0.5 0"/>
<feBlend mode="normal" in2="BackgroundImageFix" result="effect1_dropShadow_203_229714"/>
<feBlend mode="normal" in="SourceGraphic" in2="effect1_dropShadow_203_229714" result="shape"/>
</filter>
</defs>
</svg>
