<svg width="33" height="34" viewBox="0 0 33 34" fill="none" xmlns="http://www.w3.org/2000/svg">
<g filter="url(#filter0_d_203_229720)">
<path d="M23.6 9.91646L16.725 6.15474C16.5413 6.05324 16.3349 6 16.125 6C15.9151 6 15.7087 6.05324 15.525 6.15474L8.65 9.91802C8.45366 10.0254 8.28977 10.1836 8.17543 10.376C8.06109 10.5684 8.00051 10.788 8 11.0118V18.4836C8.00051 18.7074 8.06109 18.927 8.17543 19.1194C8.28977 19.3118 8.45366 19.47 8.65 19.5774L15.525 23.3407C15.7087 23.4422 15.9151 23.4954 16.125 23.4954C16.3349 23.4954 16.5413 23.4422 16.725 23.3407L23.6 19.5774C23.7963 19.47 23.9602 19.3118 24.0746 19.1194C24.1889 18.927 24.2495 18.7074 24.25 18.4836V11.0126C24.2499 10.7883 24.1895 10.5683 24.0752 10.3755C23.9608 10.1826 23.7967 10.0241 23.6 9.91646ZM16.125 14.1235L9.84766 10.686L16.125 7.24849L22.4023 10.686L16.125 14.1235ZM16.75 21.9079V15.204L23 11.7836V18.4836L16.75 21.9079Z" fill="white"/>
</g>
<defs>
<filter id="filter0_d_203_229720" x="0" y="0" width="32.25" height="33.4956" filterUnits="userSpaceOnUse" color-interpolation-filters="sRGB">
<feFlood flood-opacity="0" result="BackgroundImageFix"/>
<feColorMatrix in="SourceAlpha" type="matrix" values="0 0 0 0 0 0 0 0 0 0 0 0 0 0 0 0 0 0 127 0" result="hardAlpha"/>
<feOffset dy="2"/>
<feGaussianBlur stdDeviation="4"/>
<feComposite in2="hardAlpha" operator="out"/>
<feColorMatrix type="matrix" values="0 0 0 0 0 0 0 0 0 0 0 0 0 0 0 0 0 0 0.5 0"/>
<feBlend mode="normal" in2="BackgroundImageFix" result="effect1_dropShadow_203_229720"/>
<feBlend mode="normal" in="SourceGraphic" in2="effect1_dropShadow_203_229720" result="shape"/>
</filter>
</defs>
</svg>
