<svg width="30" height="30" viewBox="0 0 30 30" fill="none" xmlns="http://www.w3.org/2000/svg">
<g filter="url(#filter0_d_242_244873)">
<path d="M20.5 6H9.25C8.91848 6 8.60054 6.1317 8.36612 6.36612C8.1317 6.60054 8 6.91848 8 7.25V18.5C8 18.8315 8.1317 19.1495 8.36612 19.3839C8.60054 19.6183 8.91848 19.75 9.25 19.75H20.5C20.8315 19.75 21.1495 19.6183 21.3839 19.3839C21.6183 19.1495 21.75 18.8315 21.75 18.5V7.25C21.75 6.91848 21.6183 6.60054 21.3839 6.36612C21.1495 6.1317 20.8315 6 20.5 6ZM9.25 7.25H14.875V18.5H9.25V7.25Z" fill="white"/>
</g>
<defs>
<filter id="filter0_d_242_244873" x="0" y="0" width="29.75" height="29.75" filterUnits="userSpaceOnUse" color-interpolation-filters="sRGB">
<feFlood flood-opacity="0" result="BackgroundImageFix"/>
<feColorMatrix in="SourceAlpha" type="matrix" values="0 0 0 0 0 0 0 0 0 0 0 0 0 0 0 0 0 0 127 0" result="hardAlpha"/>
<feOffset dy="2"/>
<feGaussianBlur stdDeviation="4"/>
<feComposite in2="hardAlpha" operator="out"/>
<feColorMatrix type="matrix" values="0 0 0 0 0 0 0 0 0 0 0 0 0 0 0 0 0 0 0.5 0"/>
<feBlend mode="normal" in2="BackgroundImageFix" result="effect1_dropShadow_242_244873"/>
<feBlend mode="normal" in="SourceGraphic" in2="effect1_dropShadow_242_244873" result="shape"/>
</filter>
</defs>
</svg>
