<svg width="20" height="20" viewBox="0 0 20 20" fill="none" xmlns="http://www.w3.org/2000/svg">
<path d="M18.5324 11.8672V11.8594C18.5311 11.8535 18.5292 11.8478 18.5269 11.8422C18.4751 11.7007 18.4148 11.5624 18.3465 11.4281L15.0988 4.04688C15.0675 3.97578 15.0233 3.91113 14.9683 3.85625C14.7362 3.62404 14.4606 3.43984 14.1572 3.31417C13.8539 3.1885 13.5287 3.12382 13.2004 3.12382C12.872 3.12382 12.5469 3.1885 12.2435 3.31417C11.9402 3.43984 11.6646 3.62404 11.4324 3.85625C11.3156 3.97318 11.2499 4.13161 11.2496 4.29688V6.25H8.7496V4.29688C8.74966 4.21478 8.73355 4.13347 8.70218 4.05759C8.67081 3.98172 8.62481 3.91277 8.56679 3.85469C8.33463 3.62248 8.05901 3.43828 7.75566 3.31261C7.45231 3.18694 7.12717 3.12225 6.79882 3.12225C6.47046 3.12225 6.14533 3.18694 5.84198 3.31261C5.53862 3.43828 5.263 3.62248 5.03085 3.85469C4.97589 3.90957 4.93165 3.97422 4.90038 4.04531L1.65585 11.4281C1.5875 11.5624 1.52724 11.7007 1.47538 11.8422C1.47321 11.8475 1.47138 11.853 1.46991 11.8586C1.46991 11.8586 1.46991 11.8648 1.46991 11.8672C1.14724 12.7995 1.20497 13.8214 1.63058 14.7114C2.05619 15.6015 2.81539 16.2879 3.74366 16.6221C4.67192 16.9562 5.69446 16.911 6.58966 16.4964C7.48487 16.0818 8.18063 15.3311 8.52616 14.407C8.6783 13.992 8.75502 13.553 8.75272 13.1109V7.5H11.2527V13.1117C11.2504 13.5538 11.3271 13.9927 11.4793 14.4078C11.8248 15.3319 12.5206 16.0826 13.4158 16.4972C14.311 16.9118 15.3335 16.957 16.2618 16.6228C17.1901 16.2887 17.9493 15.6023 18.3749 14.7122C18.8005 13.8222 18.8582 12.8003 18.5355 11.868L18.5324 11.8672ZM7.34882 13.9766C7.11802 14.5924 6.65387 15.0925 6.05693 15.3684C5.45999 15.6444 4.77835 15.6741 4.15971 15.451C3.54106 15.2279 3.03524 14.77 2.75185 14.1765C2.46845 13.5831 2.43031 12.9018 2.64569 12.2805L2.7871 11.9578C3.047 11.4638 3.46477 11.071 3.97384 10.8419C4.48291 10.6129 5.05399 10.5608 5.59609 10.694C6.13819 10.8272 6.62012 11.138 6.96509 11.5768C7.31006 12.0157 7.49822 12.5574 7.4996 13.1156V13.125C7.49955 13.4165 7.44852 13.7058 7.34882 13.9797V13.9766ZM15.859 15.4742C15.4811 15.6126 15.0754 15.6576 14.6763 15.6056C14.2773 15.5535 13.8967 15.4059 13.5669 15.1753C13.2371 14.9447 12.9679 14.6379 12.7821 14.2809C12.5962 13.924 12.4993 13.5274 12.4996 13.125V13.1164C12.5017 12.5585 12.6903 12.0172 13.0355 11.5789C13.3808 11.1405 13.8627 10.8303 14.4046 10.6975C14.9465 10.5647 15.5173 10.617 16.0261 10.8461C16.5348 11.0752 16.9523 11.4679 17.2121 11.9617L17.3535 12.2844C17.5758 12.9057 17.5434 13.5897 17.2635 14.1872C16.9835 14.7848 16.4786 15.2474 15.859 15.4742Z" fill="#64748B"/>
</svg>
