<svg width="31" height="31" viewBox="0 0 31 31" fill="none" xmlns="http://www.w3.org/2000/svg">
<g filter="url(#filter0_d_242_244864)">
<path d="M22.375 8.49874C22.3748 8.03121 22.2434 7.57311 21.9959 7.17648C21.7484 6.77984 21.3946 6.46056 20.9748 6.25489C20.5549 6.04922 20.0858 5.96541 19.6207 6.01297C19.1556 6.06054 18.7131 6.23757 18.3436 6.52396C17.974 6.81036 17.6922 7.19464 17.5301 7.63317C17.368 8.0717 17.3321 8.54689 17.4265 9.00479C17.5209 9.46269 17.7418 9.88495 18.0641 10.2236C18.3865 10.5623 18.7973 10.8037 19.25 10.9206V12.2487C19.25 12.4145 19.1842 12.5735 19.0669 12.6907C18.9497 12.8079 18.7908 12.8737 18.625 12.8737H11.75C11.537 12.8737 11.3256 12.9101 11.125 12.9816V10.9206C11.7142 10.7685 12.2276 10.4067 12.5691 9.90311C12.9106 9.3995 13.0568 8.78862 12.9801 8.18499C12.9034 7.58136 12.6092 7.02641 12.1527 6.62416C11.6961 6.22192 11.1085 6 10.5 6C9.89152 6 9.30393 6.22192 8.84736 6.62416C8.39079 7.02641 8.0966 7.58136 8.01993 8.18499C7.94326 8.78862 8.08937 9.3995 8.43088 9.90311C8.77239 10.4067 9.28584 10.7685 9.87501 10.9206V16.0769C9.28584 16.229 8.77239 16.5908 8.43088 17.0944C8.08937 17.598 7.94326 18.2089 8.01993 18.8125C8.0966 19.4161 8.39079 19.9711 8.84736 20.3733C9.30393 20.7756 9.89152 20.9975 10.5 20.9975C11.1085 20.9975 11.6961 20.7756 12.1527 20.3733C12.6092 19.9711 12.9034 19.4161 12.9801 18.8125C13.0568 18.2089 12.9106 17.598 12.5691 17.0944C12.2276 16.5908 11.7142 16.229 11.125 16.0769V14.7487C11.125 14.583 11.1909 14.424 11.3081 14.3068C11.4253 14.1896 11.5842 14.1237 11.75 14.1237H18.625C19.1223 14.1237 19.5992 13.9262 19.9508 13.5746C20.3025 13.2229 20.5 12.746 20.5 12.2487V10.9206C21.0365 10.7813 21.5115 10.4679 21.8508 10.0297C22.1901 9.59142 22.3745 9.05299 22.375 8.49874ZM9.25001 8.49874C9.25001 8.25151 9.32332 8.00984 9.46067 7.80428C9.59802 7.59872 9.79324 7.4385 10.0217 7.34389C10.2501 7.24928 10.5014 7.22453 10.7439 7.27276C10.9863 7.32099 11.2091 7.44004 11.3839 7.61486C11.5587 7.78967 11.6778 8.0124 11.726 8.25488C11.7742 8.49735 11.7495 8.74869 11.6549 8.97709C11.5602 9.2055 11.4 9.40073 11.1945 9.53808C10.9889 9.67543 10.7472 9.74874 10.5 9.74874C10.1685 9.74874 9.85054 9.61704 9.61612 9.38262C9.3817 9.1482 9.25001 8.83026 9.25001 8.49874ZM11.75 18.4987C11.75 18.746 11.6767 18.9876 11.5393 19.1932C11.402 19.3988 11.2068 19.559 10.9784 19.6536C10.75 19.7482 10.4986 19.773 10.2561 19.7247C10.0137 19.6765 9.79094 19.5574 9.61612 19.3826C9.44131 19.2078 9.32226 18.9851 9.27402 18.7426C9.22579 18.5001 9.25055 18.2488 9.34516 18.0204C9.43977 17.792 9.59998 17.5968 9.80554 17.4594C10.0111 17.3221 10.2528 17.2487 10.5 17.2487C10.8315 17.2487 11.1495 17.3804 11.3839 17.6149C11.6183 17.8493 11.75 18.1672 11.75 18.4987Z" fill="white"/>
</g>
<defs>
<filter id="filter0_d_242_244864" x="0" y="0" width="30.375" height="30.9976" filterUnits="userSpaceOnUse" color-interpolation-filters="sRGB">
<feFlood flood-opacity="0" result="BackgroundImageFix"/>
<feColorMatrix in="SourceAlpha" type="matrix" values="0 0 0 0 0 0 0 0 0 0 0 0 0 0 0 0 0 0 127 0" result="hardAlpha"/>
<feOffset dy="2"/>
<feGaussianBlur stdDeviation="4"/>
<feComposite in2="hardAlpha" operator="out"/>
<feColorMatrix type="matrix" values="0 0 0 0 0 0 0 0 0 0 0 0 0 0 0 0 0 0 0.5 0"/>
<feBlend mode="normal" in2="BackgroundImageFix" result="effect1_dropShadow_242_244864"/>
<feBlend mode="normal" in="SourceGraphic" in2="effect1_dropShadow_242_244864" result="shape"/>
</filter>
</defs>
</svg>
