<svg width="28" height="28" viewBox="0 0 28 28" fill="none" xmlns="http://www.w3.org/2000/svg">
<g filter="url(#filter0_dd_151_106847)">
<path d="M21.875 3.75H16.875C16.212 3.75 15.5761 4.01339 15.1072 4.48223C14.6384 4.95107 14.375 5.58696 14.375 6.25V13.1039C14.3772 13.2652 14.3182 13.4213 14.2099 13.5409C14.1017 13.6605 13.9521 13.7346 13.7914 13.7484C13.7059 13.7541 13.6202 13.7422 13.5395 13.7133C13.4588 13.6844 13.3849 13.6393 13.3224 13.5807C13.26 13.5221 13.2102 13.4512 13.1762 13.3726C13.1422 13.2939 13.1248 13.2091 13.125 13.1234V6.25C13.125 5.58696 12.8616 4.95107 12.3928 4.48223C11.9239 4.01339 11.288 3.75 10.625 3.75H5.625C5.45924 3.75 5.30027 3.81585 5.18306 3.93306C5.06585 4.05027 5 4.20924 5 4.375V15.625C5 15.7908 5.06585 15.9497 5.18306 16.0669C5.30027 16.1842 5.45924 16.25 5.625 16.25H11.25C11.7465 16.25 12.2227 16.4469 12.5742 16.7975C12.9257 17.1481 13.1238 17.6238 13.125 18.1203C13.1225 18.2479 13.1596 18.3732 13.2313 18.4788C13.3029 18.5844 13.4055 18.6653 13.525 18.7102C13.6198 18.7468 13.7222 18.7597 13.8232 18.7478C13.9241 18.7359 14.0207 18.6995 14.1044 18.6419C14.1881 18.5842 14.2566 18.507 14.3037 18.4169C14.3509 18.3269 14.3753 18.2267 14.375 18.125C14.375 17.6277 14.5725 17.1508 14.9242 16.7992C15.2758 16.4475 15.7527 16.25 16.25 16.25H21.875C22.0408 16.25 22.1997 16.1842 22.3169 16.0669C22.4342 15.9497 22.5 15.7908 22.5 15.625V4.375C22.5 4.20924 22.4342 4.05027 22.3169 3.93306C22.1997 3.81585 22.0408 3.75 21.875 3.75ZM20 13.125H16.8961C16.7348 13.1272 16.5787 13.0682 16.4591 12.9599C16.3395 12.8517 16.2654 12.7021 16.2516 12.5414C16.2459 12.4559 16.2578 12.3702 16.2867 12.2895C16.3156 12.2088 16.3607 12.1349 16.4193 12.0724C16.4779 12.01 16.5488 11.9602 16.6274 11.9262C16.7061 11.8922 16.7909 11.8748 16.8766 11.875H19.9805C20.1418 11.8728 20.2979 11.9318 20.4175 12.0401C20.537 12.1483 20.6112 12.2979 20.625 12.4586C20.6307 12.5441 20.6187 12.6298 20.5899 12.7105C20.561 12.7912 20.5159 12.8651 20.4573 12.9276C20.3986 12.99 20.3278 13.0398 20.2491 13.0738C20.1705 13.1078 20.0857 13.1252 20 13.125ZM20 10.625H16.8961C16.7348 10.6272 16.5787 10.5682 16.4591 10.4599C16.3395 10.3517 16.2654 10.2021 16.2516 10.0414C16.2459 9.95591 16.2578 9.87017 16.2867 9.78949C16.3156 9.70882 16.3607 9.63494 16.4193 9.57245C16.4779 9.50995 16.5488 9.46017 16.6274 9.42621C16.7061 9.39224 16.7909 9.37481 16.8766 9.375H19.9805C20.1418 9.37283 20.2979 9.43181 20.4175 9.54008C20.537 9.64835 20.6112 9.79788 20.625 9.95859C20.6307 10.0441 20.6187 10.1298 20.5899 10.2105C20.561 10.2912 20.5159 10.3651 20.4573 10.4276C20.3986 10.49 20.3278 10.5398 20.2491 10.5738C20.1705 10.6078 20.0857 10.6252 20 10.625ZM20 8.125H16.8961C16.7345 8.12757 16.578 8.06877 16.4581 7.96046C16.3382 7.85215 16.2638 7.7024 16.25 7.54141C16.2443 7.45591 16.2563 7.37017 16.2851 7.28949C16.314 7.20882 16.3591 7.13494 16.4177 7.07245C16.4764 7.00995 16.5472 6.96017 16.6259 6.92621C16.7045 6.89224 16.7893 6.87481 16.875 6.875H19.9789C20.1405 6.87243 20.297 6.93123 20.4169 7.03954C20.5368 7.14785 20.6112 7.2976 20.625 7.45859C20.6307 7.54409 20.6187 7.62983 20.5899 7.71051C20.561 7.79118 20.5159 7.86506 20.4573 7.92755C20.3986 7.99005 20.3278 8.03983 20.2491 8.07379C20.1705 8.10776 20.0857 8.12519 20 8.125Z" fill="#475569"/>
</g>
<defs>
<filter id="filter0_dd_151_106847" x="0" y="2.75" width="27.5" height="25.002" filterUnits="userSpaceOnUse" color-interpolation-filters="sRGB">
<feFlood flood-opacity="0" result="BackgroundImageFix"/>
<feColorMatrix in="SourceAlpha" type="matrix" values="0 0 0 0 0 0 0 0 0 0 0 0 0 0 0 0 0 0 127 0" result="hardAlpha"/>
<feMorphology radius="2" operator="erode" in="SourceAlpha" result="effect1_dropShadow_151_106847"/>
<feOffset dy="2"/>
<feGaussianBlur stdDeviation="2"/>
<feColorMatrix type="matrix" values="0 0 0 0 0.0666667 0 0 0 0 0.0941176 0 0 0 0 0.152941 0 0 0 0.1 0"/>
<feBlend mode="normal" in2="BackgroundImageFix" result="effect1_dropShadow_151_106847"/>
<feColorMatrix in="SourceAlpha" type="matrix" values="0 0 0 0 0 0 0 0 0 0 0 0 0 0 0 0 0 0 127 0" result="hardAlpha"/>
<feMorphology radius="1" operator="erode" in="SourceAlpha" result="effect2_dropShadow_151_106847"/>
<feOffset dy="4"/>
<feGaussianBlur stdDeviation="3"/>
<feComposite in2="hardAlpha" operator="out"/>
<feColorMatrix type="matrix" values="0 0 0 0 0.0666667 0 0 0 0 0.0941176 0 0 0 0 0.152941 0 0 0 0.1 0"/>
<feBlend mode="normal" in2="effect1_dropShadow_151_106847" result="effect2_dropShadow_151_106847"/>
<feBlend mode="normal" in="SourceGraphic" in2="effect2_dropShadow_151_106847" result="shape"/>
</filter>
</defs>
</svg>
