<svg width="35" height="32" viewBox="0 0 35 32" fill="none" xmlns="http://www.w3.org/2000/svg">
<g filter="url(#filter0_d_151_126297)">
<path d="M14.9281 8.02664C14.8912 7.98621 14.8656 7.93678 14.8538 7.88332C14.842 7.82987 14.8444 7.77424 14.8609 7.72203C14.8773 7.66981 14.9072 7.62284 14.9475 7.5858C14.9879 7.54877 15.0372 7.52298 15.0906 7.51101C15.84 7.33977 16.6063 7.25407 17.375 7.25555C20.1 7.25555 22.5758 8.29148 24.5359 10.2516C26.007 11.7227 26.6687 13.1907 26.6961 13.2524C26.7316 13.3324 26.75 13.4189 26.75 13.5063C26.75 13.5938 26.7316 13.6803 26.6961 13.7602C26.6687 13.822 26.007 15.2891 24.5359 16.7602C24.313 16.9821 24.0841 17.1923 23.8492 17.3907C23.7874 17.4432 23.7076 17.4696 23.6267 17.4643C23.5458 17.4591 23.4701 17.4226 23.4156 17.3626L14.9281 8.02664ZM24.0875 19.9602C24.1438 20.0208 24.1876 20.0919 24.2163 20.1695C24.245 20.247 24.2579 20.3295 24.2545 20.4122C24.251 20.4948 24.2312 20.5759 24.1962 20.6509C24.1611 20.7258 24.1116 20.793 24.0504 20.8486C23.9892 20.9042 23.9175 20.9472 23.8396 20.9749C23.7617 21.0026 23.679 21.0146 23.5965 21.0102C23.5139 21.0057 23.433 20.985 23.3585 20.949C23.284 20.9131 23.2174 20.8627 23.1625 20.8009L21.4375 18.9063C20.1582 19.4722 18.7738 19.7615 17.375 19.7555C14.65 19.7555 12.1742 18.7196 10.2141 16.7602C8.74296 15.2891 8.07812 13.822 8.0539 13.7602C8.01836 13.6803 8 13.5938 8 13.5063C8 13.4189 8.01836 13.3324 8.0539 13.2524C8.07812 13.193 8.74296 11.7227 10.2141 10.2516C10.8018 9.66121 11.4574 9.14249 12.1672 8.70633L10.6625 7.05086C10.6061 6.99032 10.5624 6.9192 10.5337 6.84162C10.505 6.76404 10.492 6.68154 10.4955 6.59891C10.4989 6.51628 10.5188 6.43515 10.5538 6.36023C10.5888 6.28531 10.6384 6.21809 10.6996 6.16247C10.7608 6.10684 10.8325 6.06392 10.9104 6.03619C10.9883 6.00845 11.0709 5.99646 11.1535 6.0009C11.2361 6.00535 11.317 6.02614 11.3915 6.06207C11.466 6.098 11.5326 6.14836 11.5875 6.21023L24.0875 19.9602ZM18.9711 16.1907L14.8547 11.6595C14.4305 12.2406 14.2199 12.9504 14.2584 13.6688C14.2968 14.3873 14.582 15.0705 15.0658 15.603C15.5496 16.1356 16.2024 16.4849 16.9139 16.5919C17.6253 16.699 18.352 16.5573 18.9711 16.1907Z" fill="white"/>
</g>
<defs>
<filter id="filter0_d_151_126297" x="0" y="0" width="34.75" height="31.0107" filterUnits="userSpaceOnUse" color-interpolation-filters="sRGB">
<feFlood flood-opacity="0" result="BackgroundImageFix"/>
<feColorMatrix in="SourceAlpha" type="matrix" values="0 0 0 0 0 0 0 0 0 0 0 0 0 0 0 0 0 0 127 0" result="hardAlpha"/>
<feOffset dy="2"/>
<feGaussianBlur stdDeviation="4"/>
<feComposite in2="hardAlpha" operator="out"/>
<feColorMatrix type="matrix" values="0 0 0 0 0 0 0 0 0 0 0 0 0 0 0 0 0 0 0.5 0"/>
<feBlend mode="normal" in2="BackgroundImageFix" result="effect1_dropShadow_151_126297"/>
<feBlend mode="normal" in="SourceGraphic" in2="effect1_dropShadow_151_126297" result="shape"/>
</filter>
</defs>
</svg>
