<svg width="31" height="31" viewBox="0 0 31 31" fill="none" xmlns="http://www.w3.org/2000/svg">
<g filter="url(#filter0_d_210_13114)">
<path d="M23 6.625V9.75C23 9.91576 22.9342 10.0747 22.8169 10.1919C22.6997 10.3092 22.5408 10.375 22.375 10.375C22.2092 10.375 22.0503 10.3092 21.9331 10.1919C21.8158 10.0747 21.75 9.91576 21.75 9.75V7.25H19.25C19.0842 7.25 18.9253 7.18415 18.8081 7.06694C18.6908 6.94973 18.625 6.79076 18.625 6.625C18.625 6.45924 18.6908 6.30027 18.8081 6.18306C18.9253 6.06585 19.0842 6 19.25 6H22.375C22.5408 6 22.6997 6.06585 22.8169 6.18306C22.9342 6.30027 23 6.45924 23 6.625ZM11.75 19.75H9.25V17.25C9.25 17.0842 9.18415 16.9253 9.06694 16.8081C8.94973 16.6908 8.79076 16.625 8.625 16.625C8.45924 16.625 8.30027 16.6908 8.18306 16.8081C8.06585 16.9253 8 17.0842 8 17.25V20.375C8 20.5408 8.06585 20.6997 8.18306 20.8169C8.30027 20.9342 8.45924 21 8.625 21H11.75C11.9158 21 12.0747 20.9342 12.1919 20.8169C12.3092 20.6997 12.375 20.5408 12.375 20.375C12.375 20.2092 12.3092 20.0503 12.1919 19.9331C12.0747 19.8158 11.9158 19.75 11.75 19.75ZM22.375 16.625C22.2092 16.625 22.0503 16.6908 21.9331 16.8081C21.8158 16.9253 21.75 17.0842 21.75 17.25V19.75H19.25C19.0842 19.75 18.9253 19.8158 18.8081 19.9331C18.6908 20.0503 18.625 20.2092 18.625 20.375C18.625 20.5408 18.6908 20.6997 18.8081 20.8169C18.9253 20.9342 19.0842 21 19.25 21H22.375C22.5408 21 22.6997 20.9342 22.8169 20.8169C22.9342 20.6997 23 20.5408 23 20.375V17.25C23 17.0842 22.9342 16.9253 22.8169 16.8081C22.6997 16.6908 22.5408 16.625 22.375 16.625ZM8.625 10.375C8.79076 10.375 8.94973 10.3092 9.06694 10.1919C9.18415 10.0747 9.25 9.91576 9.25 9.75V7.25H11.75C11.9158 7.25 12.0747 7.18415 12.1919 7.06694C12.3092 6.94973 12.375 6.79076 12.375 6.625C12.375 6.45924 12.3092 6.30027 12.1919 6.18306C12.0747 6.06585 11.9158 6 11.75 6H8.625C8.45924 6 8.30027 6.06585 8.18306 6.18306C8.06585 6.30027 8 6.45924 8 6.625V9.75C8 9.91576 8.06585 10.0747 8.18306 10.1919C8.30027 10.3092 8.45924 10.375 8.625 10.375ZM11.125 9.75V17.25C11.125 17.4158 11.1908 17.5747 11.3081 17.6919C11.4253 17.8092 11.5842 17.875 11.75 17.875H19.25C19.4158 17.875 19.5747 17.8092 19.6919 17.6919C19.8092 17.5747 19.875 17.4158 19.875 17.25V9.75C19.875 9.58424 19.8092 9.42527 19.6919 9.30806C19.5747 9.19085 19.4158 9.125 19.25 9.125H11.75C11.5842 9.125 11.4253 9.19085 11.3081 9.30806C11.1908 9.42527 11.125 9.58424 11.125 9.75Z" fill="white"/>
</g>
<defs>
<filter id="filter0_d_210_13114" x="0" y="0" width="31" height="31" filterUnits="userSpaceOnUse" color-interpolation-filters="sRGB">
<feFlood flood-opacity="0" result="BackgroundImageFix"/>
<feColorMatrix in="SourceAlpha" type="matrix" values="0 0 0 0 0 0 0 0 0 0 0 0 0 0 0 0 0 0 127 0" result="hardAlpha"/>
<feOffset dy="2"/>
<feGaussianBlur stdDeviation="4"/>
<feComposite in2="hardAlpha" operator="out"/>
<feColorMatrix type="matrix" values="0 0 0 0 0 0 0 0 0 0 0 0 0 0 0 0 0 0 0.5 0"/>
<feBlend mode="normal" in2="BackgroundImageFix" result="effect1_dropShadow_210_13114"/>
<feBlend mode="normal" in="SourceGraphic" in2="effect1_dropShadow_210_13114" result="shape"/>
</filter>
</defs>
</svg>
