<svg width="14" height="14" viewBox="0 0 14 14" fill="none" xmlns="http://www.w3.org/2000/svg">
<path d="M1.75 4.08333V2.91667C1.75 2.275 2.275 1.75 2.91667 1.75H4.08333M9.91667 1.75H11.0833C11.725 1.75 12.25 2.275 12.25 2.91667V4.08333M12.25 9.91667V11.0833C12.25 11.725 11.725 12.25 11.0833 12.25H9.91667M4.08333 12.25H2.91667C2.275 12.25 1.75 11.725 1.75 11.0833V9.91667M4.66667 4.08333H7.58333C7.9055 4.08333 8.16667 4.3445 8.16667 4.66667V6.41667C8.16667 6.73883 7.9055 7 7.58333 7H4.66667C4.3445 7 4.08333 6.73883 4.08333 6.41667V4.66667C4.08333 4.3445 4.3445 4.08333 4.66667 4.08333ZM6.41667 7H9.33333C9.6555 7 9.91667 7.26117 9.91667 7.58333V9.33333C9.91667 9.6555 9.6555 9.91667 9.33333 9.91667H6.41667C6.0945 9.91667 5.83333 9.6555 5.83333 9.33333V7.58333C5.83333 7.26117 6.0945 7 6.41667 7Z" stroke="#ECFDF5" stroke-width="1.33333" stroke-linecap="round" stroke-linejoin="round"/>
</svg>
