<svg width="27" height="26" viewBox="0 0 27 26" fill="none" xmlns="http://www.w3.org/2000/svg">
<g filter="url(#filter0_dd_156_145747)">
<path d="M20.3547 6.77031L6.6 2.55156C6.41383 2.49726 6.21758 2.48702 6.02678 2.52165C5.83597 2.55628 5.65584 2.63483 5.50062 2.75109C5.34541 2.86735 5.21938 3.01812 5.13249 3.19149C5.0456 3.36486 5.00024 3.55607 5 3.74999V15C5 15.3315 5.1317 15.6495 5.36612 15.8839C5.60054 16.1183 5.91848 16.25 6.25 16.25C6.36953 16.25 6.48845 16.2329 6.60313 16.1992L13.125 14.1977V15C13.125 15.3315 13.2567 15.6495 13.4911 15.8839C13.7255 16.1183 14.0435 16.25 14.375 16.25H16.875C17.2065 16.25 17.5245 16.1183 17.7589 15.8839C17.9933 15.6495 18.125 15.3315 18.125 15V12.6641L20.3547 11.9805C20.6127 11.9029 20.8391 11.7445 21.0003 11.5286C21.1615 11.3127 21.249 11.0507 21.25 10.7812V7.96874C21.2488 7.69943 21.1612 7.43761 21 7.22185C20.8388 7.00609 20.6126 6.8478 20.3547 6.77031ZM16.875 15H14.375V13.8141L16.875 13.0469V15ZM20 10.7812H19.9914L14.375 12.5062V6.24296L19.9914 7.96874H20V10.7812Z" fill="#0284C7"/>
</g>
<defs>
<filter id="filter0_dd_156_145747" x="0" y="1.50156" width="26.25" height="23.7484" filterUnits="userSpaceOnUse" color-interpolation-filters="sRGB">
<feFlood flood-opacity="0" result="BackgroundImageFix"/>
<feColorMatrix in="SourceAlpha" type="matrix" values="0 0 0 0 0 0 0 0 0 0 0 0 0 0 0 0 0 0 127 0" result="hardAlpha"/>
<feMorphology radius="2" operator="erode" in="SourceAlpha" result="effect1_dropShadow_156_145747"/>
<feOffset dy="2"/>
<feGaussianBlur stdDeviation="2"/>
<feColorMatrix type="matrix" values="0 0 0 0 0.0666667 0 0 0 0 0.0941176 0 0 0 0 0.152941 0 0 0 0.1 0"/>
<feBlend mode="normal" in2="BackgroundImageFix" result="effect1_dropShadow_156_145747"/>
<feColorMatrix in="SourceAlpha" type="matrix" values="0 0 0 0 0 0 0 0 0 0 0 0 0 0 0 0 0 0 127 0" result="hardAlpha"/>
<feMorphology radius="1" operator="erode" in="SourceAlpha" result="effect2_dropShadow_156_145747"/>
<feOffset dy="4"/>
<feGaussianBlur stdDeviation="3"/>
<feComposite in2="hardAlpha" operator="out"/>
<feColorMatrix type="matrix" values="0 0 0 0 0.0666667 0 0 0 0 0.0941176 0 0 0 0 0.152941 0 0 0 0.1 0"/>
<feBlend mode="normal" in2="effect1_dropShadow_156_145747" result="effect2_dropShadow_156_145747"/>
<feBlend mode="normal" in="SourceGraphic" in2="effect2_dropShadow_156_145747" result="shape"/>
</filter>
</defs>
</svg>
