<svg width="20" height="20" viewBox="0 0 20 20" fill="none" xmlns="http://www.w3.org/2000/svg">
<path d="M16.7076 9.80157L7.95759 19.1766C7.86487 19.2755 7.74247 19.3416 7.60888 19.3649C7.47528 19.3882 7.33773 19.3674 7.21699 19.3057C7.09625 19.244 6.99886 19.1446 6.93953 19.0227C6.88019 18.9007 6.86213 18.7628 6.88806 18.6297L8.03338 12.9008L3.53103 11.2102C3.43434 11.174 3.34811 11.1144 3.28005 11.0368C3.21199 10.9592 3.16422 10.8659 3.14101 10.7653C3.11779 10.6647 3.11986 10.5599 3.14702 10.4603C3.17418 10.3607 3.22559 10.2694 3.29666 10.1945L12.0467 0.819538C12.1394 0.720581 12.2618 0.654468 12.3954 0.631176C12.529 0.607884 12.6665 0.628675 12.7873 0.690414C12.908 0.752152 13.0054 0.851488 13.0647 0.97343C13.1241 1.09537 13.1421 1.2333 13.1162 1.36641L11.9677 7.10157L16.4701 8.78985C16.5661 8.82626 16.6516 8.88576 16.7191 8.96307C16.7867 9.04039 16.8341 9.13315 16.8573 9.23316C16.8805 9.33317 16.8786 9.43734 16.852 9.53648C16.8253 9.63562 16.7747 9.72666 16.7045 9.80157H16.7076Z" fill="#64748B"/>
</svg>
