<svg width="31" height="32" viewBox="0 0 31 32" fill="none" xmlns="http://www.w3.org/2000/svg">
<g filter="url(#filter0_d_203_229717)">
<path d="M21.75 6H9.25C8.91848 6 8.60054 6.1317 8.36612 6.36612C8.1317 6.60054 8 6.91848 8 7.25V11.625C8 15.7437 9.99375 18.2398 11.6664 19.6086C13.468 21.082 15.2602 21.582 15.3383 21.6031C15.4457 21.6323 15.559 21.6323 15.6664 21.6031C15.7445 21.582 17.5344 21.082 19.3383 19.6086C21.0063 18.2398 23 15.7437 23 11.625V7.25C23 6.91848 22.8683 6.60054 22.6339 6.36612C22.3995 6.1317 22.0815 6 21.75 6ZM19.0687 11.4422L14.6937 15.8172C14.6357 15.8753 14.5668 15.9214 14.4909 15.9529C14.415 15.9843 14.3337 16.0005 14.2516 16.0005C14.1694 16.0005 14.0881 15.9843 14.0122 15.9529C13.9364 15.9214 13.8674 15.8753 13.8094 15.8172L11.9344 13.9422C11.8171 13.8249 11.7512 13.6659 11.7512 13.5C11.7512 13.3341 11.8171 13.1751 11.9344 13.0578C12.0517 12.9405 12.2107 12.8747 12.3766 12.8747C12.5424 12.8747 12.7015 12.9405 12.8187 13.0578L14.25 14.4914L18.1828 10.5578C18.2409 10.4997 18.3098 10.4537 18.3857 10.4223C18.4616 10.3908 18.5429 10.3747 18.625 10.3747C18.7071 10.3747 18.7884 10.3908 18.8643 10.4223C18.9402 10.4537 19.0091 10.4997 19.0672 10.5578C19.1253 10.6159 19.1713 10.6848 19.2027 10.7607C19.2342 10.8366 19.2503 10.9179 19.2503 11C19.2503 11.0821 19.2342 11.1634 19.2027 11.2393C19.1713 11.3152 19.1253 11.3841 19.0672 11.4422H19.0687Z" fill="white"/>
</g>
<defs>
<filter id="filter0_d_203_229717" x="0" y="0" width="31" height="31.625" filterUnits="userSpaceOnUse" color-interpolation-filters="sRGB">
<feFlood flood-opacity="0" result="BackgroundImageFix"/>
<feColorMatrix in="SourceAlpha" type="matrix" values="0 0 0 0 0 0 0 0 0 0 0 0 0 0 0 0 0 0 127 0" result="hardAlpha"/>
<feOffset dy="2"/>
<feGaussianBlur stdDeviation="4"/>
<feComposite in2="hardAlpha" operator="out"/>
<feColorMatrix type="matrix" values="0 0 0 0 0 0 0 0 0 0 0 0 0 0 0 0 0 0 0.5 0"/>
<feBlend mode="normal" in2="BackgroundImageFix" result="effect1_dropShadow_203_229717"/>
<feBlend mode="normal" in="SourceGraphic" in2="effect1_dropShadow_203_229717" result="shape"/>
</filter>
</defs>
</svg>
