<svg width="34" height="34" viewBox="0 0 34 34" fill="none" xmlns="http://www.w3.org/2000/svg">
<g filter="url(#filter0_d_151_126302)">
<g clip-path="url(#clip0_151_126302)">
<mask id="mask0_151_126302" style="mask-type:luminance" maskUnits="userSpaceOnUse" x="8" y="6" width="18" height="19">
<path d="M8 6H25.9985V24.001H8V6Z" fill="white"/>
</mask>
<g mask="url(#mask0_151_126302)">
<path fill-rule="evenodd" clip-rule="evenodd" d="M7.29688 6H34.2971V24.001H7.29688V6Z" fill="white"/>
<path fill-rule="evenodd" clip-rule="evenodd" d="M7.29688 6H34.2971V14.9992H7.29688V6Z" fill="#DF0000"/>
<path fill-rule="evenodd" clip-rule="evenodd" d="M13.5245 7.50843C12.8139 7.66067 12.1774 8.05278 11.7219 8.6189C11.2663 9.18502 11.0194 9.89066 11.0227 10.6173C11.026 11.344 11.2792 12.0473 11.7399 12.6093C12.2005 13.1713 12.8405 13.5577 13.5524 13.7035C13.0731 13.8438 12.5678 13.8707 12.0762 13.7823C11.5847 13.6938 11.1205 13.4924 10.7201 13.1938C10.3198 12.8953 9.99429 12.5077 9.76934 12.0619C9.54438 11.616 9.42611 11.1239 9.42386 10.6245C9.42161 10.1251 9.53543 9.63201 9.75636 9.18412C9.97728 8.73622 10.2993 8.34579 10.6969 8.04363C11.0945 7.74146 11.5569 7.53583 12.0476 7.44295C12.5383 7.35007 13.0439 7.37249 13.5245 7.50843Z" fill="white"/>
<path fill-rule="evenodd" clip-rule="evenodd" d="M12.4273 10.125L11.9473 9.77451L12.5442 9.76943L12.727 9.20301L12.9175 9.76943H13.5119L13.0344 10.125L13.2173 10.6915L12.7321 10.3435L12.2495 10.694L12.4273 10.125ZM13.0877 12.0783L12.6051 11.7278L13.202 11.7227L13.3874 11.1563L13.5754 11.7202H14.1723L13.6897 12.0758L13.8751 12.6422L13.3925 12.2967L12.9099 12.6473L13.0877 12.0783ZM15.2798 12.0631L14.7971 11.7125L15.3915 11.7075L15.5769 11.141L15.7649 11.7075H16.3643L15.8843 12.0631L16.0697 12.6295L15.5846 12.2815L15.1019 12.632L15.2798 12.0631ZM15.9325 10.1276L15.4499 9.77705L16.0468 9.77197L16.2297 9.20555L16.4202 9.76943H17.0146L16.5371 10.125L16.7199 10.6915L16.2348 10.346L15.7522 10.6965L15.9325 10.1276ZM14.1977 8.84487L13.7151 8.49435L14.312 8.48927L14.4974 7.92285L14.6854 8.48927H15.2823L14.7997 8.84487L14.9851 9.40875L14.5025 9.06331L14.0199 9.41383L14.1977 8.84487Z" fill="white"/>
</g>
</g>
</g>
<defs>
<filter id="filter0_d_151_126302" x="0" y="0" width="34" height="34" filterUnits="userSpaceOnUse" color-interpolation-filters="sRGB">
<feFlood flood-opacity="0" result="BackgroundImageFix"/>
<feColorMatrix in="SourceAlpha" type="matrix" values="0 0 0 0 0 0 0 0 0 0 0 0 0 0 0 0 0 0 127 0" result="hardAlpha"/>
<feOffset dy="2"/>
<feGaussianBlur stdDeviation="4"/>
<feComposite in2="hardAlpha" operator="out"/>
<feColorMatrix type="matrix" values="0 0 0 0 0 0 0 0 0 0 0 0 0 0 0 0 0 0 0.5 0"/>
<feBlend mode="normal" in2="BackgroundImageFix" result="effect1_dropShadow_151_126302"/>
<feBlend mode="normal" in="SourceGraphic" in2="effect1_dropShadow_151_126302" result="shape"/>
</filter>
<clipPath id="clip0_151_126302">
<rect x="8" y="6" width="18" height="18" rx="9" fill="white"/>
</clipPath>
</defs>
</svg>
