<svg width="34" height="29" viewBox="0 0 34 29" fill="none" xmlns="http://www.w3.org/2000/svg">
<g filter="url(#filter0_d_296_43431)">
<path d="M24.875 10.375C25.0408 10.375 25.1997 10.3092 25.3169 10.1919C25.4342 10.0747 25.5 9.91576 25.5 9.75V7.25C25.5 6.91848 25.3683 6.60054 25.1339 6.36612C24.8995 6.1317 24.5815 6 24.25 6H9.25C8.91848 6 8.60054 6.1317 8.36612 6.36612C8.1317 6.60054 8 6.91848 8 7.25V9.75C8 9.91576 8.06585 10.0747 8.18306 10.1919C8.30027 10.3092 8.45924 10.375 8.625 10.375C9.12228 10.375 9.59919 10.5725 9.95083 10.9242C10.3025 11.2758 10.5 11.7527 10.5 12.25C10.5 12.7473 10.3025 13.2242 9.95083 13.5758C9.59919 13.9275 9.12228 14.125 8.625 14.125C8.45924 14.125 8.30027 14.1908 8.18306 14.3081C8.06585 14.4253 8 14.5842 8 14.75V17.25C8 17.5815 8.1317 17.8995 8.36612 18.1339C8.60054 18.3683 8.91848 18.5 9.25 18.5H24.25C24.5815 18.5 24.8995 18.3683 25.1339 18.1339C25.3683 17.8995 25.5 17.5815 25.5 17.25V14.75C25.5 14.5842 25.4342 14.4253 25.3169 14.3081C25.1997 14.1908 25.0408 14.125 24.875 14.125C24.3777 14.125 23.9008 13.9275 23.5492 13.5758C23.1975 13.2242 23 12.7473 23 12.25C23 11.7527 23.1975 11.2758 23.5492 10.9242C23.9008 10.5725 24.3777 10.375 24.875 10.375ZM9.25 15.3125C9.95643 15.1691 10.5915 14.7858 11.0477 14.2277C11.5039 13.6695 11.7531 12.9708 11.7531 12.25C11.7531 11.5292 11.5039 10.8305 11.0477 10.2723C10.5915 9.71421 9.95643 9.33095 9.25 9.1875V7.25H13.625V17.25H9.25V15.3125Z" fill="white"/>
</g>
<defs>
<filter id="filter0_d_296_43431" x="0" y="0" width="33.5" height="28.5" filterUnits="userSpaceOnUse" color-interpolation-filters="sRGB">
<feFlood flood-opacity="0" result="BackgroundImageFix"/>
<feColorMatrix in="SourceAlpha" type="matrix" values="0 0 0 0 0 0 0 0 0 0 0 0 0 0 0 0 0 0 127 0" result="hardAlpha"/>
<feOffset dy="2"/>
<feGaussianBlur stdDeviation="4"/>
<feComposite in2="hardAlpha" operator="out"/>
<feColorMatrix type="matrix" values="0 0 0 0 0 0 0 0 0 0 0 0 0 0 0 0 0 0 0.5 0"/>
<feBlend mode="normal" in2="BackgroundImageFix" result="effect1_dropShadow_296_43431"/>
<feBlend mode="normal" in="SourceGraphic" in2="effect1_dropShadow_296_43431" result="shape"/>
</filter>
</defs>
</svg>
