<svg width="94" height="28" viewBox="0 0 94 28" fill="none" xmlns="http://www.w3.org/2000/svg">
<g clip-path="url(#clip0_151_136026)">
<path d="M28 27.8248H15.3133L9.47634 20.4711L6.03146 26.7514L0 17.0688L2.76834 12.0162L7.95264 2.5637L9.26172 0.174805H20.6027L14.6606 11.0153L16.6103 13.4729L28 27.8248Z" fill="white"/>
<path d="M9.47852 20.4714L14.6623 11.0156L16.6108 13.4727L16.6114 13.4738L9.47852 20.4714Z" fill="#E3E3E3"/>
</g>
<path d="M35.5781 22V6H38.4766V13.3516H38.6719L44.9141 6H48.4531L42.2656 13.1797L48.5078 22H45.0234L40.25 15.1406L38.4766 17.2344V22H35.5781ZM50.6538 22V10H53.4819V22H50.6538ZM52.0756 8.29688C51.6277 8.29688 51.2423 8.14844 50.9194 7.85156C50.5965 7.54948 50.435 7.1875 50.435 6.76562C50.435 6.33854 50.5965 5.97656 50.9194 5.67969C51.2423 5.3776 51.6277 5.22656 52.0756 5.22656C52.5288 5.22656 52.9142 5.3776 53.2319 5.67969C53.5548 5.97656 53.7163 6.33854 53.7163 6.76562C53.7163 7.1875 53.5548 7.54948 53.2319 7.85156C52.9142 8.14844 52.5288 8.29688 52.0756 8.29688ZM55.9501 22V10H58.6923V12H58.8173C59.036 11.3073 59.411 10.7734 59.9423 10.3984C60.4787 10.0182 61.0907 9.82812 61.7782 9.82812C61.9345 9.82812 62.1089 9.83594 62.3016 9.85156C62.4996 9.86198 62.6636 9.88021 62.7938 9.90625V12.5078C62.674 12.4661 62.4839 12.4297 62.2235 12.3984C61.9683 12.362 61.7209 12.3437 61.4813 12.3437C60.9657 12.3437 60.5022 12.4557 60.0907 12.6797C59.6845 12.8984 59.3641 13.2031 59.1298 13.5937C58.8954 13.9844 58.7782 14.4349 58.7782 14.9453V22H55.9501ZM68.973 22.2344C67.8011 22.2344 66.7855 21.9766 65.9261 21.4609C65.0667 20.9453 64.4001 20.224 63.9261 19.2969C63.4573 18.3698 63.223 17.2865 63.223 16.0469C63.223 14.8073 63.4573 13.7214 63.9261 12.7891C64.4001 11.8568 65.0667 11.1328 65.9261 10.6172C66.7855 10.1016 67.8011 9.84375 68.973 9.84375C70.1448 9.84375 71.1605 10.1016 72.0198 10.6172C72.8792 11.1328 73.5433 11.8568 74.012 12.7891C74.486 13.7214 74.723 14.8073 74.723 16.0469C74.723 17.2865 74.486 18.3698 74.012 19.2969C73.5433 20.224 72.8792 20.9453 72.0198 21.4609C71.1605 21.9766 70.1448 22.2344 68.973 22.2344ZM68.9886 19.9687C69.624 19.9687 70.1553 19.7943 70.5823 19.4453C71.0094 19.0911 71.3271 18.6172 71.5355 18.0234C71.749 17.4297 71.8558 16.7682 71.8558 16.0391C71.8558 15.3047 71.749 14.6406 71.5355 14.0469C71.3271 13.4479 71.0094 12.9714 70.5823 12.6172C70.1553 12.263 69.624 12.0859 68.9886 12.0859C68.3376 12.0859 67.7959 12.263 67.3636 12.6172C66.9365 12.9714 66.6162 13.4479 66.4027 14.0469C66.1943 14.6406 66.0902 15.3047 66.0902 16.0391C66.0902 16.7682 66.1943 17.4297 66.4027 18.0234C66.6162 18.6172 66.9365 19.0911 67.3636 19.4453C67.7959 19.7943 68.3376 19.9687 68.9886 19.9687ZM86.1677 13.1719L83.5896 13.4531C83.5167 13.1927 83.3891 12.9479 83.2068 12.7188C83.0297 12.4896 82.7901 12.3047 82.488 12.1641C82.186 12.0234 81.8162 11.9531 81.3787 11.9531C80.7901 11.9531 80.2953 12.0807 79.8943 12.3359C79.4985 12.5911 79.3032 12.9219 79.3084 13.3281C79.3032 13.6771 79.4308 13.9609 79.6912 14.1797C79.9568 14.3984 80.3943 14.5781 81.0037 14.7188L83.0505 15.1562C84.186 15.401 85.0297 15.7891 85.5818 16.3203C86.1391 16.8516 86.4203 17.5469 86.4255 18.4062C86.4203 19.1615 86.199 19.8281 85.7615 20.4062C85.3292 20.9792 84.7276 21.4271 83.9568 21.75C83.186 22.0729 82.3005 22.2344 81.3005 22.2344C79.8318 22.2344 78.6495 21.9271 77.7537 21.3125C76.8578 20.6927 76.324 19.8307 76.1521 18.7266L78.9099 18.4609C79.0349 19.0026 79.3005 19.4115 79.7068 19.6875C80.113 19.9635 80.6417 20.1016 81.2927 20.1016C81.9646 20.1016 82.5037 19.9635 82.9099 19.6875C83.3214 19.4115 83.5271 19.0703 83.5271 18.6641C83.5271 18.3203 83.3943 18.0365 83.1287 17.8125C82.8683 17.5885 82.462 17.4167 81.9099 17.2969L79.863 16.8672C78.712 16.6276 77.8604 16.224 77.3084 15.6562C76.7563 15.0833 76.4828 14.3594 76.488 13.4844C76.4828 12.7448 76.6834 12.1042 77.0896 11.5625C77.5011 11.0156 78.0714 10.5937 78.8005 10.2969C79.5349 9.99479 80.3813 9.84375 81.3396 9.84375C82.7459 9.84375 83.8526 10.1432 84.6599 10.7422C85.4724 11.3411 85.975 12.151 86.1677 13.1719Z" fill="white"/>
<path d="M88.7741 9.59659V6.4517H90.3295C90.5057 6.4517 90.6733 6.49148 90.8324 6.57102C90.9943 6.64773 91.125 6.76278 91.2244 6.91619C91.3267 7.0696 91.3778 7.25852 91.3778 7.48295C91.3778 7.70739 91.3253 7.89915 91.2202 8.05824C91.1151 8.21449 90.9787 8.33381 90.8111 8.41619C90.6463 8.49858 90.473 8.53977 90.2912 8.53977H89.2045V7.97301H90.1037C90.2145 7.97301 90.3168 7.93182 90.4105 7.84943C90.5043 7.76705 90.5511 7.64489 90.5511 7.48295C90.5511 7.3125 90.5043 7.19318 90.4105 7.125C90.3168 7.05682 90.2188 7.02273 90.1165 7.02273H89.5497V9.59659H88.7741ZM90.7472 8.13494L91.4886 9.59659H90.6364L89.9332 8.13494H90.7472ZM89.9972 11.4716C89.5256 11.4716 89.0838 11.3835 88.6719 11.2074C88.2599 11.0312 87.8977 10.7869 87.5852 10.4744C87.2727 10.1619 87.0284 9.79972 86.8523 9.38778C86.6761 8.97585 86.5881 8.53409 86.5881 8.0625C86.5881 7.59091 86.6761 7.14915 86.8523 6.73722C87.0284 6.32528 87.2727 5.96307 87.5852 5.65057C87.8977 5.33807 88.2599 5.09375 88.6719 4.91761C89.0838 4.74148 89.5256 4.65341 89.9972 4.65341C90.4688 4.65341 90.9105 4.74148 91.3224 4.91761C91.7344 5.09375 92.0966 5.33807 92.4091 5.65057C92.7216 5.96307 92.9659 6.32528 93.142 6.73722C93.3182 7.14915 93.4062 7.59091 93.4062 8.0625C93.4062 8.53409 93.3182 8.97585 93.142 9.38778C92.9659 9.79972 92.7216 10.1619 92.4091 10.4744C92.0966 10.7869 91.7344 11.0312 91.3224 11.2074C90.9105 11.3835 90.4688 11.4716 89.9972 11.4716ZM89.9972 10.598C90.4631 10.598 90.8878 10.4844 91.2713 10.2571C91.6548 10.0298 91.9602 9.72443 92.1875 9.34091C92.4176 8.95455 92.5327 8.52841 92.5327 8.0625C92.5327 7.59659 92.4176 7.17188 92.1875 6.78835C91.9602 6.40199 91.6548 6.09517 91.2713 5.8679C90.8878 5.64062 90.4631 5.52699 89.9972 5.52699C89.5284 5.52699 89.1023 5.64062 88.7188 5.8679C88.3352 6.09517 88.0284 6.40199 87.7983 6.78835C87.571 7.17188 87.4574 7.59659 87.4574 8.0625C87.4574 8.52841 87.571 8.95312 87.7983 9.33665C88.0284 9.72017 88.3352 10.027 88.7188 10.2571C89.1023 10.4844 89.5284 10.598 89.9972 10.598Z" fill="white"/>
<defs>
<clipPath id="clip0_151_136026">
<rect width="28" height="28" fill="white"/>
</clipPath>
</defs>
</svg>
