<svg width="119" height="32" viewBox="0 0 119 32" fill="none" xmlns="http://www.w3.org/2000/svg">
<rect width="32" height="32" rx="4.8" fill="#1C2E63"/>
<path d="M27.7203 25.6H19.0209L15.0186 20.4938L12.1203 25.6H4.32031L10.4186 14.6226L13.9735 8.05898L14.8712 6.39999H22.648L18.5733 13.9274L19.9102 15.6342L27.7203 25.6Z" fill="#F2F2ED"/>
<path d="M15.0195 20.4948L18.574 13.9289L19.9104 15.6349L19.9109 15.6355L15.0195 20.4948Z" fill="#ACC7D8"/>
<path d="M40.0368 24.2V6.74547H43.4118V14.6375H43.6333L50.2299 6.74547H54.3208L47.6731 14.5693L54.3805 24.2H50.3407L45.3038 16.8364L43.4118 19.0949V24.2H40.0368ZM59.0511 6.74547V24.2H55.6761V6.74547H59.0511ZM61.6124 24.2V6.74547H68.2942C69.6294 6.74547 70.7573 6.97842 71.6777 7.44433C72.5982 7.91024 73.297 8.56649 73.7743 9.41308C74.2516 10.2597 74.4902 11.2483 74.4902 12.379C74.4902 13.5097 74.2487 14.4898 73.7658 15.3193C73.2828 16.1432 72.5754 16.7796 71.6436 17.2284C70.7118 17.6716 69.5754 17.8932 68.2345 17.8932H63.5897V15.1318H67.7402C68.4902 15.1318 69.1095 15.0267 69.5982 14.8165C70.0868 14.6063 70.4476 14.2966 70.6806 13.8875C70.9192 13.4784 71.0385 12.9756 71.0385 12.379C71.0385 11.771 70.9192 11.2568 70.6806 10.8364C70.4419 10.4102 70.0783 10.0892 69.5897 9.87331C69.101 9.65172 68.4789 9.54092 67.7232 9.54092H64.9874V24.2H61.6124ZM70.7999 16.2739L75.1209 24.2H71.3794L67.1351 16.2739H70.7999ZM92.3242 15.4727C92.3242 17.3648 91.9691 18.9784 91.2589 20.3136C90.5543 21.6489 89.5912 22.6716 88.3697 23.3818C87.1537 24.0864 85.7787 24.4386 84.2447 24.4386C82.7049 24.4386 81.327 24.0835 80.1111 23.3733C78.8952 22.6631 77.9322 21.6404 77.2219 20.3051C76.5174 18.9699 76.1651 17.3591 76.1651 15.4727C76.1651 13.5807 76.5174 11.9671 77.2219 10.6318C77.9322 9.2966 78.8952 8.27672 80.1111 7.57217C81.327 6.86194 82.7049 6.50683 84.2447 6.50683C85.7787 6.50683 87.1537 6.86194 88.3697 7.57217C89.5912 8.27672 90.5543 9.2966 91.2589 10.6318C91.9691 11.9671 92.3242 13.5807 92.3242 15.4727ZM88.9236 15.4727C88.9236 14.183 88.7248 13.0977 88.327 12.2171C87.935 11.3307 87.3867 10.6602 86.6822 10.2057C85.9833 9.74547 85.1708 9.51535 84.2447 9.51535C83.3185 9.51535 82.5032 9.74547 81.7986 10.2057C81.0998 10.6602 80.5515 11.3307 80.1537 12.2171C79.7617 13.0977 79.5657 14.183 79.5657 15.4727C79.5657 16.7625 79.7617 17.8506 80.1537 18.7369C80.5515 19.6176 81.0998 20.2881 81.7986 20.7483C82.5032 21.2029 83.3185 21.4301 84.2447 21.4301C85.1708 21.4301 85.9833 21.2029 86.6822 20.7483C87.3867 20.2881 87.935 19.6176 88.327 18.7369C88.7248 17.8506 88.9236 16.7625 88.9236 15.4727ZM103.971 11.629C103.891 10.9074 103.57 10.3477 103.008 9.95001C102.451 9.5466 101.715 9.3449 100.8 9.3449C100.164 9.3449 99.6212 9.43865 99.1724 9.62615C98.7235 9.81365 98.3798 10.0693 98.1411 10.3932C97.9025 10.7114 97.7832 11.0779 97.7832 11.4926C97.7775 11.8335 97.8542 12.1318 98.0133 12.3875C98.1724 12.6432 98.3883 12.8591 98.661 13.0352C98.9394 13.2114 99.2519 13.3619 99.5985 13.4869C99.9451 13.6119 100.3 13.7171 100.664 13.8023L102.275 14.1943C102.974 14.3534 103.633 14.5693 104.252 14.8421C104.877 15.1148 105.428 15.4529 105.905 15.8563C106.383 16.2597 106.758 16.7426 107.03 17.3051C107.303 17.8676 107.442 18.521 107.448 19.2654C107.442 20.3051 107.175 21.2142 106.647 21.9926C106.118 22.771 105.357 23.3761 104.363 23.808C103.368 24.2398 102.17 24.4557 100.766 24.4557C99.3854 24.4557 98.1866 24.2455 97.1695 23.825C96.1582 23.3989 95.3656 22.7739 94.7917 21.95C94.2235 21.1261 93.9224 20.1148 93.8883 18.9159H97.1781C97.2235 19.5125 97.4025 20.0097 97.715 20.4074C98.0332 20.8051 98.4508 21.1034 98.9678 21.3023C99.4906 21.5011 100.079 21.6006 100.732 21.6006C101.391 21.6006 101.968 21.5011 102.462 21.3023C102.962 21.1034 103.351 20.8279 103.63 20.4756C103.914 20.1233 104.056 19.7142 104.056 19.2483C104.056 18.8165 103.931 18.4585 103.681 18.1744C103.431 17.8904 103.076 17.6517 102.616 17.4585C102.161 17.2597 101.618 17.0807 100.988 16.9216L99.036 16.4273C97.5872 16.058 96.4423 15.4955 95.6014 14.7398C94.7604 13.9841 94.3428 12.9727 94.3485 11.7057C94.3428 10.6659 94.6212 9.75683 95.1837 8.97842C95.7519 8.20001 96.5247 7.5949 97.5019 7.16308C98.4849 6.72558 99.5957 6.50683 100.834 6.50683C102.096 6.50683 103.201 6.72558 104.15 7.16308C105.099 7.5949 105.84 8.19717 106.374 8.9699C106.914 9.73694 107.192 10.6233 107.209 11.629H103.971Z" fill="#051040"/>
<path d="M115.693 10.9454L113.988 6.76363H114.88L115.966 9.58749L117.056 6.76363H117.949L116.244 10.9454H115.693ZM113.699 10.9454V6.76363H114.687V10.9454H113.699ZM117.25 10.9454V6.76363H118.238V10.9454H117.25ZM110.71 10.9454V7.12727H111.699V10.9454H110.71ZM109.437 7.58749V6.76363H112.971V7.58749H109.437Z" fill="#E56024"/>
</svg>