<svg width="94" height="83" viewBox="0 0 94 83" fill="none" xmlns="http://www.w3.org/2000/svg">
<g opacity="0.3" filter="url(#filter0_d_242_270013)">
<rect x="18.332" y="3.33301" width="56.6667" height="73.3333" rx="1.30952" fill="#F8FAFC"/>
<rect x="17.9154" y="2.91634" width="57.5" height="74.1667" rx="1.72619" stroke="#E2E8F0" stroke-width="0.833333"/>
<rect opacity="0.6" x="23.5703" y="8.57129" width="36.6667" height="3.05556" rx="1.30952" fill="#0A263D"/>
<rect opacity="0.3" x="23.5703" y="15.5552" width="44.5238" height="1.30952" rx="0.654762" fill="#0A263D"/>
<rect opacity="0.3" x="23.5703" y="18.96" width="44.5238" height="1.30952" rx="0.654762" fill="#0A263D"/>
<rect opacity="0.3" x="23.5703" y="22.3647" width="37.9762" height="1.30952" rx="0.654762" fill="#0A263D"/>
<rect opacity="0.3" x="23.5703" y="25.7695" width="44.5238" height="1.30952" rx="0.654762" fill="#0A263D"/>
<rect opacity="0.3" x="23.5703" y="29.1743" width="37.9762" height="1.30952" rx="0.654762" fill="#0A263D"/>
<rect opacity="0.3" x="23.5703" y="32.5791" width="41.9048" height="1.30952" rx="0.654762" fill="#0A263D"/>
<rect opacity="0.3" x="23.5703" y="35.9839" width="41.9048" height="1.30952" rx="0.654762" fill="#0A263D"/>
<rect opacity="0.3" x="23.5703" y="39.3887" width="41.9048" height="1.30952" rx="0.654762" fill="#0A263D"/>
<rect opacity="0.3" x="23.5703" y="42.7935" width="37.9762" height="1.30952" rx="0.654762" fill="#0A263D"/>
<rect opacity="0.3" x="23.5703" y="48.0312" width="44.5238" height="1.30952" rx="0.654762" fill="#0A263D"/>
<rect opacity="0.3" x="23.5703" y="51.436" width="44.5238" height="1.30952" rx="0.654762" fill="#0A263D"/>
<rect opacity="0.3" x="23.5703" y="54.8408" width="37.9762" height="1.30952" rx="0.654762" fill="#0A263D"/>
<rect opacity="0.3" x="23.5703" y="58.2456" width="44.5238" height="1.30952" rx="0.654762" fill="#0A263D"/>
<rect opacity="0.3" x="23.5703" y="61.6504" width="37.9762" height="1.30952" rx="0.654762" fill="#0A263D"/>
<rect opacity="0.3" x="23.5703" y="65.0552" width="37.9762" height="1.30952" rx="0.654762" fill="#0A263D"/>
</g>
<g filter="url(#filter1_d_242_270013)">
<g clip-path="url(#clip0_242_270013)">
<rect x="18.332" y="3.33301" width="56.6667" height="36.6667" rx="1.30952" fill="white"/>
<rect opacity="0.6" x="23.5703" y="8.57129" width="36.6667" height="3.05556" rx="1.30952" fill="#0A263D"/>
<rect opacity="0.3" x="23.5703" y="15.5552" width="44.5238" height="1.30952" rx="0.654762" fill="#0A263D"/>
<rect opacity="0.3" x="23.5703" y="18.96" width="44.5238" height="1.30952" rx="0.654762" fill="#0A263D"/>
<rect opacity="0.3" x="23.5703" y="22.3647" width="37.9762" height="1.30952" rx="0.654762" fill="#0A263D"/>
<rect opacity="0.3" x="23.5703" y="25.7695" width="44.5238" height="1.30952" rx="0.654762" fill="#0A263D"/>
<rect opacity="0.3" x="23.5703" y="29.1743" width="37.9762" height="1.30952" rx="0.654762" fill="#0A263D"/>
<rect opacity="0.3" x="23.5703" y="32.5791" width="41.9048" height="1.30952" rx="0.654762" fill="#0A263D"/>
<rect opacity="0.3" x="23.5703" y="35.9839" width="41.9048" height="1.30952" rx="0.654762" fill="#0A263D"/>
<rect opacity="0.3" x="23.5703" y="39.3887" width="41.9048" height="1.30952" rx="0.654762" fill="#0A263D"/>
</g>
<rect x="17.9154" y="2.91634" width="57.5" height="37.5" rx="1.72619" stroke="#E2E8F0" stroke-width="0.833333"/>
</g>
<g clip-path="url(#clip1_242_270013)">
<rect opacity="0.2" x="16.666" y="41.667" width="3.33333" height="3.33333" fill="#17B885" fill-opacity="0.06"/>
<rect opacity="0.39" x="23.332" y="41.667" width="3.33333" height="3.33333" fill="#059669" fill-opacity="0.64"/>
<rect opacity="0.02" x="30" y="41.667" width="3.33333" height="3.33333" fill="#059669" fill-opacity="0.44"/>
<rect opacity="0.35" x="36.666" y="41.667" width="3.33333" height="3.33333" fill="#059669" fill-opacity="0.6"/>
<rect opacity="0.25" x="50" y="41.667" width="3.33333" height="3.33333" fill="#059669" fill-opacity="0.45"/>
<rect opacity="0.47" x="56.666" y="41.667" width="3.33333" height="3.33333" fill="#059669" fill-opacity="0.13"/>
<rect opacity="0.27" x="70" y="41.667" width="3.33333" height="3.33333" fill="#17B885" fill-opacity="0.07"/>
<rect opacity="0.39" x="16.666" y="48.334" width="3.33333" height="3.33333" fill="#059669" fill-opacity="0.33"/>
<rect opacity="0.04" x="23.332" y="48.334" width="3.33333" height="3.33333" fill="#17B885" fill-opacity="0.14"/>
<rect opacity="0.01" x="30" y="48.334" width="3.33333" height="3.33333" fill="#059669" fill-opacity="0.57"/>
<rect opacity="0.47" x="36.666" y="48.334" width="3.33333" height="3.33333" fill="#059669" fill-opacity="0.58"/>
<rect opacity="0.21" x="43.332" y="48.334" width="3.33333" height="3.33333" fill="#059669" fill-opacity="0.34"/>
<rect opacity="0.18" x="50" y="48.334" width="3.33333" height="3.33333" fill="#059669" fill-opacity="0.47"/>
<rect opacity="0.02" x="56.666" y="48.334" width="3.33333" height="3.33333" fill="#059669" fill-opacity="0.55"/>
<rect opacity="0.41" x="63.332" y="41.667" width="3.33333" height="3.33333" fill="#17B885" fill-opacity="0.19"/>
<rect opacity="0.5" x="70" y="48.334" width="3.33333" height="3.33333" fill="#059669" fill-opacity="0.61"/>
<rect opacity="0.37" x="63.332" y="48.334" width="3.33333" height="3.33333" fill="#059669" fill-opacity="0.23"/>
</g>
<g filter="url(#filter2_d_242_270013)">
<rect x="6.66602" y="38.3335" width="80" height="3.33333" rx="1.66667" fill="#059669"/>
</g>
<defs>
<filter id="filter0_d_242_270013" x="14.1647" y="0.832845" width="65.0007" height="81.6667" filterUnits="userSpaceOnUse" color-interpolation-filters="sRGB">
<feFlood flood-opacity="0" result="BackgroundImageFix"/>
<feColorMatrix in="SourceAlpha" type="matrix" values="0 0 0 0 0 0 0 0 0 0 0 0 0 0 0 0 0 0 127 0" result="hardAlpha"/>
<feOffset dy="1.66667"/>
<feGaussianBlur stdDeviation="1.66667"/>
<feColorMatrix type="matrix" values="0 0 0 0 0.0627451 0 0 0 0 0.0941176 0 0 0 0 0.156863 0 0 0 0.04 0"/>
<feBlend mode="normal" in2="BackgroundImageFix" result="effect1_dropShadow_242_270013"/>
<feBlend mode="normal" in="SourceGraphic" in2="effect1_dropShadow_242_270013" result="shape"/>
</filter>
<filter id="filter1_d_242_270013" x="14.1647" y="0.832845" width="65.0007" height="45.0002" filterUnits="userSpaceOnUse" color-interpolation-filters="sRGB">
<feFlood flood-opacity="0" result="BackgroundImageFix"/>
<feColorMatrix in="SourceAlpha" type="matrix" values="0 0 0 0 0 0 0 0 0 0 0 0 0 0 0 0 0 0 127 0" result="hardAlpha"/>
<feOffset dy="1.66667"/>
<feGaussianBlur stdDeviation="1.66667"/>
<feColorMatrix type="matrix" values="0 0 0 0 0.0627451 0 0 0 0 0.0941176 0 0 0 0 0.156863 0 0 0 0.04 0"/>
<feBlend mode="normal" in2="BackgroundImageFix" result="effect1_dropShadow_242_270013"/>
<feBlend mode="normal" in="SourceGraphic" in2="effect1_dropShadow_242_270013" result="shape"/>
</filter>
<filter id="filter2_d_242_270013" x="-0.00065136" y="35.0002" width="93.3333" height="16.6668" filterUnits="userSpaceOnUse" color-interpolation-filters="sRGB">
<feFlood flood-opacity="0" result="BackgroundImageFix"/>
<feColorMatrix in="SourceAlpha" type="matrix" values="0 0 0 0 0 0 0 0 0 0 0 0 0 0 0 0 0 0 127 0" result="hardAlpha"/>
<feOffset dy="3.33333"/>
<feGaussianBlur stdDeviation="3.33333"/>
<feColorMatrix type="matrix" values="0 0 0 0 0.0196078 0 0 0 0 0.588235 0 0 0 0 0.411765 0 0 0 1 0"/>
<feBlend mode="normal" in2="BackgroundImageFix" result="effect1_dropShadow_242_270013"/>
<feBlend mode="normal" in="SourceGraphic" in2="effect1_dropShadow_242_270013" result="shape"/>
</filter>
<clipPath id="clip0_242_270013">
<rect x="18.332" y="3.33301" width="56.6667" height="36.6667" rx="1.30952" fill="white"/>
</clipPath>
<clipPath id="clip1_242_270013">
<rect width="86.6667" height="10" fill="white" transform="translate(3.33203 41.667)"/>
</clipPath>
</defs>
</svg>
