<svg width="80" height="80" viewBox="0 0 80 80" fill="none" xmlns="http://www.w3.org/2000/svg">
<g filter="url(#filter0_d_242_270669)">
<g clip-path="url(#clip0_242_270669)">
<mask id="path-1-inside-1_242_270669" fill="white">
<path d="M4 8C4 6.89543 4.89543 6 6 6H40V74H6C4.89543 74 4 73.1046 4 72V8Z"/>
</mask>
<path d="M4 8C4 6.89543 4.89543 6 6 6H40V74H6C4.89543 74 4 73.1046 4 72V8Z" fill="white"/>
<mask id="path-3-inside-2_242_270669" fill="white">
<path d="M4 6H40V23H4V6Z"/>
</mask>
<path d="M4 6H40V23H4V6Z" fill="#F1F5F9"/>
<path d="M40 23V22.5H4V23V23.5H40V23Z" fill="#E2E8F0" mask="url(#path-3-inside-2_242_270669)"/>
<rect x="9" y="13" width="14" height="2" rx="1" fill="#111827"/>
<mask id="path-6-inside-3_242_270669" fill="white">
<path d="M4 23H40V40H4V23Z"/>
</mask>
<path d="M4 23H40V40H4V23Z" fill="white"/>
<path d="M40 40V39.5H4V40V40.5H40V40Z" fill="#E2E8F0" mask="url(#path-6-inside-3_242_270669)"/>
<rect opacity="0.6" x="9" y="31" width="10" height="2" rx="1" fill="#4B5563"/>
<mask id="path-9-inside-4_242_270669" fill="white">
<path d="M4 40H40V57H4V40Z"/>
</mask>
<path d="M4 40H40V57H4V40Z" fill="white"/>
<path d="M40 57V56.5H4V57V57.5H40V57Z" fill="#E2E8F0" mask="url(#path-9-inside-4_242_270669)"/>
<rect opacity="0.6" x="9" y="48" width="10" height="2" rx="1" fill="#4B5563"/>
<mask id="path-12-inside-5_242_270669" fill="white">
<path d="M4 57H40V74H4V57Z"/>
</mask>
<path d="M4 57H40V74H4V57Z" fill="white"/>
<path d="M40 74V73.5H4V74V74.5H40V74Z" fill="#E2E8F0" mask="url(#path-12-inside-5_242_270669)"/>
<rect opacity="0.6" x="9" y="65" width="10" height="2" rx="1" fill="#4B5563"/>
</g>
<path d="M3.5 8C3.5 6.61929 4.61929 5.5 6 5.5H40V6.5H6C5.17157 6.5 4.5 7.17157 4.5 8H3.5ZM40 74.5H6C4.61929 74.5 3.5 73.3807 3.5 72H4.5C4.5 72.8284 5.17157 73.5 6 73.5H40V74.5ZM6 74.5C4.61929 74.5 3.5 73.3807 3.5 72V8C3.5 6.61929 4.61929 5.5 6 5.5V6.5C5.17157 6.5 4.5 7.17157 4.5 8V72C4.5 72.8284 5.17157 73.5 6 73.5V74.5ZM40 6V74V6Z" fill="#E2E8F0" mask="url(#path-1-inside-1_242_270669)"/>
</g>
<g filter="url(#filter1_d_242_270669)">
<path d="M40 6H74C75.1046 6 76 6.89543 76 8V72C76 73.1046 75.1046 74 74 74H40V6Z" fill="#FEF1EF" shape-rendering="crispEdges"/>
<path d="M74 6.25C74.9665 6.25 75.75 7.0335 75.75 8V72C75.75 72.9665 74.9665 73.75 74 73.75H40.25V6.25H74Z" stroke="#E2E8F0" stroke-width="0.5" shape-rendering="crispEdges"/>
<path d="M74 6.25C74.9665 6.25 75.75 7.0335 75.75 8V22.75H40.25V6.25H74Z" fill="#FDDFDA"/>
<path d="M74 6.25C74.9665 6.25 75.75 7.0335 75.75 8V22.75H40.25V6.25H74Z" stroke="#E2E8F0" stroke-width="0.5"/>
<rect x="44" y="13" width="14" height="2" rx="1" fill="#111827"/>
<mask id="path-19-inside-6_242_270669" fill="white">
<path d="M40 23H76V40H40V23Z"/>
</mask>
<path d="M76 40V39.5H40V40V40.5H76V40Z" fill="#E2E8F0" mask="url(#path-19-inside-6_242_270669)"/>
<rect opacity="0.6" x="45" y="31" width="16" height="2" rx="1" fill="#111827"/>
<rect x="40.4" y="40.4" width="35.2" height="16.2" stroke="#6781E0" stroke-width="0.8"/>
<rect opacity="0.6" x="45" y="48" width="16" height="2" rx="1" fill="#111827"/>
<mask id="path-24-inside-7_242_270669" fill="white">
<path d="M40 57H76V74H40V57Z"/>
</mask>
<path d="M76 74V73.5H40V74V74.5H76V74Z" fill="#E2E8F0" mask="url(#path-24-inside-7_242_270669)"/>
<rect opacity="0.6" x="45" y="65" width="16" height="2" rx="1" fill="#111827"/>
</g>
<g filter="url(#filter2_dd_242_270669)">
<path d="M63.8282 53.1631C63.6394 52.4986 64.325 51.9234 64.9466 52.2246L75.2743 57.2293C75.9855 57.574 75.8193 58.6316 75.0366 58.7415L70.5447 59.3722C70.2417 59.4147 69.9895 59.6263 69.895 59.9173L68.4939 64.2315C68.2498 64.9832 67.1794 64.9633 66.9635 64.2029L63.8282 53.1631Z" fill="#18181B"/>
<path d="M63.3469 53.2998C63.0402 52.22 64.1546 51.2849 65.1648 51.7744L75.4925 56.7795C76.648 57.3397 76.378 59.0575 75.1064 59.2363L70.6142 59.8671C70.5006 59.883 70.4058 59.9626 70.3703 60.0717L68.969 64.3861C68.5722 65.6073 66.8335 65.575 66.4825 64.3398L63.3469 53.2998Z" stroke="white"/>
</g>
<defs>
<filter id="filter0_d_242_270669" x="2" y="5" width="40" height="72" filterUnits="userSpaceOnUse" color-interpolation-filters="sRGB">
<feFlood flood-opacity="0" result="BackgroundImageFix"/>
<feColorMatrix in="SourceAlpha" type="matrix" values="0 0 0 0 0 0 0 0 0 0 0 0 0 0 0 0 0 0 127 0" result="hardAlpha"/>
<feOffset dy="1"/>
<feGaussianBlur stdDeviation="1"/>
<feComposite in2="hardAlpha" operator="out"/>
<feColorMatrix type="matrix" values="0 0 0 0 0 0 0 0 0 0 0 0 0 0 0 0 0 0 0.04 0"/>
<feBlend mode="normal" in2="BackgroundImageFix" result="effect1_dropShadow_242_270669"/>
<feBlend mode="normal" in="SourceGraphic" in2="effect1_dropShadow_242_270669" result="shape"/>
</filter>
<filter id="filter1_d_242_270669" x="38" y="5" width="40" height="72" filterUnits="userSpaceOnUse" color-interpolation-filters="sRGB">
<feFlood flood-opacity="0" result="BackgroundImageFix"/>
<feColorMatrix in="SourceAlpha" type="matrix" values="0 0 0 0 0 0 0 0 0 0 0 0 0 0 0 0 0 0 127 0" result="hardAlpha"/>
<feOffset dy="1"/>
<feGaussianBlur stdDeviation="1"/>
<feComposite in2="hardAlpha" operator="out"/>
<feColorMatrix type="matrix" values="0 0 0 0 0 0 0 0 0 0 0 0 0 0 0 0 0 0 0.04 0"/>
<feBlend mode="normal" in2="BackgroundImageFix" result="effect1_dropShadow_242_270669"/>
<feBlend mode="normal" in="SourceGraphic" in2="effect1_dropShadow_242_270669" result="shape"/>
</filter>
<filter id="filter2_dd_242_270669" x="61.2949" y="50.6396" width="16.9316" height="17.6445" filterUnits="userSpaceOnUse" color-interpolation-filters="sRGB">
<feFlood flood-opacity="0" result="BackgroundImageFix"/>
<feColorMatrix in="SourceAlpha" type="matrix" values="0 0 0 0 0 0 0 0 0 0 0 0 0 0 0 0 0 0 127 0" result="hardAlpha"/>
<feOffset dy="0.75"/>
<feGaussianBlur stdDeviation="0.5"/>
<feColorMatrix type="matrix" values="0 0 0 0 0 0 0 0 0 0 0 0 0 0 0 0 0 0 0.2 0"/>
<feBlend mode="normal" in2="BackgroundImageFix" result="effect1_dropShadow_242_270669"/>
<feColorMatrix in="SourceAlpha" type="matrix" values="0 0 0 0 0 0 0 0 0 0 0 0 0 0 0 0 0 0 127 0" result="hardAlpha"/>
<feOffset dy="1"/>
<feGaussianBlur stdDeviation="0.75"/>
<feColorMatrix type="matrix" values="0 0 0 0 0 0 0 0 0 0 0 0 0 0 0 0 0 0 0.25 0"/>
<feBlend mode="normal" in2="effect1_dropShadow_242_270669" result="effect2_dropShadow_242_270669"/>
<feBlend mode="normal" in="SourceGraphic" in2="effect2_dropShadow_242_270669" result="shape"/>
</filter>
<clipPath id="clip0_242_270669">
<path d="M4 8C4 6.89543 4.89543 6 6 6H40V74H6C4.89543 74 4 73.1046 4 72V8Z" fill="white"/>
</clipPath>
</defs>
</svg>
